<?xml version="1.0" encoding="UTF-8"?>
<!DOCTYPE svg PUBLIC "-//W3C//DTD SVG 1.1//EN" "http://www.w3.org/Graphics/SVG/1.1/DTD/svg11.dtd">
<svg xmlns="http://www.w3.org/2000/svg" version="1.1" width="1080px" height="1080px" style="shape-rendering:geometricPrecision; text-rendering:geometricPrecision; image-rendering:optimizeQuality; fill-rule:evenodd; clip-rule:evenodd" xmlns:xlink="http://www.w3.org/1999/xlink">
<g><path style="opacity:0.004" fill="#000000" d="M 524.5,14.5 C 527.64,13.3592 530.973,13.1925 534.5,14C 531.183,14.4983 527.85,14.665 524.5,14.5 Z"/></g>
<g><path style="opacity:0.042" fill="#000200" d="M 613.5,23.5 C 575.313,18.2406 536.979,16.7406 498.5,19C 483.807,20.3179 469.14,21.8179 454.5,23.5C 453.432,22.5655 452.099,22.2322 450.5,22.5C 451.152,21.2749 452.319,20.6083 454,20.5C 455.658,20.6752 456.991,21.3418 458,22.5C 458.483,21.552 458.649,20.552 458.5,19.5C 461.728,19.7006 464.895,19.3672 468,18.5C 468.95,19.0223 469.784,19.689 470.5,20.5C 473.443,19.7565 476.443,19.2565 479.5,19C 477.833,18.6667 476.167,18.3333 474.5,18C 482.261,17.7144 489.928,16.7144 497.5,15C 506.167,14.3333 514.833,14.3333 523.5,15C 519.833,15.3333 516.167,15.6667 512.5,16C 517,16.1667 521.5,16.3333 526,16.5C 533.177,15.1801 542.011,14.5134 552.5,14.5C 566.512,15.3338 580.512,16.5005 594.5,18C 591.879,18.9056 592.046,19.4056 595,19.5C 600.719,17.9376 606.053,18.6043 611,21.5C 614.125,20.2126 617.291,20.2126 620.5,21.5C 618.031,22.1681 615.698,22.8347 613.5,23.5 Z"/></g>
<g><path style="opacity:0.991" fill="#010201" d="M 961.5,815.5 C 959.863,817.316 958.363,819.316 957,821.5C 951.379,817.279 945.879,812.945 940.5,808.5C 939.697,807.577 939.53,806.577 940,805.5C 1003.22,710.469 1030.55,605.802 1022,491.5C 1009.92,368.581 960.088,264.247 872.5,178.5C 878.051,174.727 879.551,169.727 877,163.5C 872.979,157.979 868.146,153.312 862.5,149.5C 859.146,153.521 855.479,157.188 851.5,160.5C 849.833,159.167 848.167,157.833 846.5,156.5C 849.059,151.927 852.059,147.594 855.5,143.5C 853.851,142.352 852.351,141.019 851,139.5C 845.217,141.976 839.383,144.309 833.5,146.5C 832.833,145.167 831.833,144.167 830.5,143.5C 830.838,137.958 831.505,132.458 832.5,127C 831.494,123.969 829.494,122.635 826.5,123C 823.36,126.812 820.36,130.645 817.5,134.5C 815.469,132.478 813.135,130.811 810.5,129.5C 810.953,128.542 811.619,127.708 812.5,127C 808.361,124.361 804.361,121.528 800.5,118.5C 801.604,116.611 802.937,114.945 804.5,113.5C 808.167,116 811.833,118.5 815.5,121C 818.869,121.451 820.369,119.951 820,116.5C 813.968,112.303 807.801,108.303 801.5,104.5C 798.143,108.852 794.809,113.185 791.5,117.5C 789.853,115.674 787.853,114.34 785.5,113.5C 788.155,108.861 790.821,104.194 793.5,99.5C 791.417,98.0413 789.25,96.7079 787,95.5C 784.746,99.0066 782.746,102.673 781,106.5C 776.585,104.377 772.418,101.877 768.5,99C 771.39,95.5794 773.056,91.9128 773.5,88C 771.833,87.1667 770.167,86.3333 768.5,85.5C 765.476,90.2314 762.476,94.8981 759.5,99.5C 754.316,95.7396 748.65,92.7396 742.5,90.5C 742.586,89.5041 742.252,88.6708 741.5,88C 737.29,86.3772 733.29,84.3772 729.5,82C 730.708,79.7497 732.041,77.583 733.5,75.5C 738.167,77.5 742.833,79.5 747.5,81.5C 748.624,80.086 749.624,78.586 750.5,77C 743.41,73.3719 736.243,69.8719 729,66.5C 726.47,71.5608 723.97,76.5608 721.5,81.5C 720.22,80.0687 718.553,79.4021 716.5,79.5C 718.931,62.7614 711.597,55.2614 694.5,57C 689.645,59.3566 685.979,62.8566 683.5,67.5C 677.659,65.3307 671.659,63.3307 665.5,61.5C 662.191,58.841 658.524,56.6743 654.5,55C 651.455,51.4736 652.289,49.6403 657,49.5C 660.766,50.3222 664.266,51.4889 667.5,53C 668.743,51.8455 669.743,50.5122 670.5,49C 663.852,43.1637 656.519,41.8304 648.5,45C 644.935,48.1908 643.935,52.0241 645.5,56.5C 643.236,55.7814 640.903,55.448 638.5,55.5C 641.858,49.1979 640.858,43.6979 635.5,39C 628.997,36.7992 622.33,35.2992 615.5,34.5C 614.622,39.5552 613.622,44.5552 612.5,49.5C 609.833,49.5 607.167,49.5 604.5,49.5C 604.5,48.1667 604.5,46.8333 604.5,45.5C 600.147,45.2354 595.813,44.7354 591.5,44C 590.577,41.9592 590.244,39.7925 590.5,37.5C 595.907,37.6759 601.24,38.3425 606.5,39.5C 607.938,37.0023 607.604,34.8356 605.5,33C 599.295,32.4468 593.128,31.6135 587,30.5C 585.674,30.7549 584.674,31.4216 584,32.5C 583.171,37.1373 582.671,41.804 582.5,46.5C 577.527,45.8363 572.527,45.5029 567.5,45.5C 568.324,42.2356 568.658,38.9023 568.5,35.5C 571.833,35.5 575.167,35.5 578.5,35.5C 578.5,33.5 578.5,31.5 578.5,29.5C 569.502,29.1192 560.502,28.7859 551.5,28.5C 551.5,30.5 551.5,32.5 551.5,34.5C 554.5,34.5 557.5,34.5 560.5,34.5C 560.5,37.8333 560.5,41.1667 560.5,44.5C 556.167,44.5 551.833,44.5 547.5,44.5C 547.665,41.1501 547.498,37.8168 547,34.5C 545.749,31.6193 543.583,29.786 540.5,29C 533.842,28.5004 527.175,28.3337 520.5,28.5C 520.5,33.8333 520.5,39.1667 520.5,44.5C 517.167,44.5 513.833,44.5 510.5,44.5C 507.758,40.0193 505.258,35.3526 503,30.5C 500.205,29.2175 497.372,29.2175 494.5,30.5C 492.688,35.9394 490.688,41.2728 488.5,46.5C 485.5,46.5 482.5,46.5 479.5,46.5C 478.462,41.5636 477.795,36.5636 477.5,31.5C 474.603,31.1253 471.937,31.6253 469.5,33C 470.768,37.713 471.435,42.5463 471.5,47.5C 467.361,48.5629 463.028,49.2296 458.5,49.5C 457.462,44.5636 456.795,39.5636 456.5,34.5C 453.603,34.1253 450.937,34.6253 448.5,36C 449.768,40.713 450.435,45.5463 450.5,50.5C 449.081,51.4511 447.415,51.7845 445.5,51.5C 441.485,40.8251 433.818,36.9918 422.5,40C 414.032,43.7685 410.365,50.2685 411.5,59.5C 410.391,59.5569 409.391,59.8902 408.5,60.5C 403.366,49.6183 395.033,46.4516 383.5,51C 379.712,52.15 376.046,53.4833 372.5,55C 374.47,59.7438 376.137,64.5771 377.5,69.5C 374.261,70.4617 371.261,71.7951 368.5,73.5C 364.369,69.8704 360.369,66.037 356.5,62C 352.721,61.2228 350.054,62.5561 348.5,66C 347.631,71.129 347.298,76.2957 347.5,81.5C 343.937,82.2824 340.603,83.6157 337.5,85.5C 336.685,84.5707 335.852,83.5707 335,82.5C 331.139,84.7636 327.139,86.7636 323,88.5C 321.287,87.0456 320.12,85.2123 319.5,83C 324.531,80.4844 329.531,77.9844 334.5,75.5C 333.752,73.6675 332.752,72.0009 331.5,70.5C 324.712,73.9773 317.879,77.3107 311,80.5C 312.501,85.1894 314.335,89.8561 316.5,94.5C 314.5,95.8333 312.5,97.1667 310.5,98.5C 307.441,94.0635 304.608,89.3968 302,84.5C 299.609,85.4291 297.775,86.9291 296.5,89C 297.777,92.3879 299.444,95.5546 301.5,98.5C 297.936,101.202 294.103,103.535 290,105.5C 287.302,102.303 284.802,98.9701 282.5,95.5C 280.37,96.4672 278.37,97.6338 276.5,99C 279.304,103.445 281.971,107.945 284.5,112.5C 278.5,116.167 272.5,119.833 266.5,123.5C 265.542,123.047 264.708,122.381 264,121.5C 260.333,124.167 256.667,126.833 253,129.5C 250.551,128.094 249.551,126.094 250,123.5C 254.08,120.543 258.247,117.71 262.5,115C 261.695,113.028 260.361,111.528 258.5,110.5C 251.993,114.586 245.66,118.92 239.5,123.5C 242.44,127.722 245.106,132.055 247.5,136.5C 245.64,137.939 243.973,139.605 242.5,141.5C 238.54,137.603 235.04,133.269 232,128.5C 230.316,130.351 228.483,132.018 226.5,133.5C 228.711,136.756 231.045,139.922 233.5,143C 230.352,146.071 227.019,148.904 223.5,151.5C 220.213,148.924 217.38,145.924 215,142.5C 212.876,143.622 211.043,145.122 209.5,147C 212.887,150.961 215.887,155.127 218.5,159.5C 215.192,162.471 211.859,165.471 208.5,168.5C 206.281,166.425 204.281,164.091 202.5,161.5C 204.356,158.81 206.689,156.644 209.5,155C 208,153.5 206.5,152 205,150.5C 198.133,156.369 191.633,162.536 185.5,169C 186.27,170.775 187.437,172.275 189,173.5C 191.333,171.167 193.667,168.833 196,166.5C 198.372,168.703 200.539,171.037 202.5,173.5C 87.3072,284.855 35.8072,420.855 48,581.5C 57.205,667.031 86.3717,744.864 135.5,815C 134.944,815.383 134.611,815.883 134.5,816.5C 128.588,820.238 123.088,824.571 118,829.5C 116.824,827.804 115.657,826.138 114.5,824.5C 38.0025,711.487 9.50247,587.153 29,451.5C 53.9845,312.94 122.485,201.773 234.5,118C 365.891,26.9926 509.558,0.325929 665.5,38C 805.138,77.5206 910.971,160.021 983,285.5C 1049.63,411.08 1063.63,542.413 1025,679.5C 1009.97,727.874 988.808,773.207 961.5,815.5 Z"/></g>
<g><path style="opacity:0.06" fill="#000200" d="M 450.5,22.5 C 451.568,23.4345 452.901,23.7678 454.5,23.5C 442.933,25.7097 431.266,28.043 419.5,30.5C 420.953,29.1751 420.619,28.3418 418.5,28C 421.393,27.3691 424.226,26.5358 427,25.5C 428,25.8333 429,26.1667 430,26.5C 436.36,23.1118 443.193,21.7785 450.5,22.5 Z"/></g>
<g><path style="opacity:0.047" fill="#000300" d="M 656.5,29.5 C 654.265,29.2053 652.265,29.5386 650.5,30.5C 638.379,28.1499 626.379,25.8165 614.5,23.5C 623.097,21.4289 631.264,22.4289 639,26.5C 640,26.1667 641,25.8333 642,25.5C 646.929,26.9835 651.762,28.3169 656.5,29.5 Z"/></g>
<g><path style="opacity:0.049" fill="#000300" d="M 417.5,30.5 C 386.958,38.6413 356.958,48.6413 327.5,60.5C 327.263,59.209 327.596,58.209 328.5,57.5C 329.251,58.5735 330.251,58.7401 331.5,58C 334.736,55.1319 338.236,52.6319 342,50.5C 342.308,51.3081 342.808,51.9747 343.5,52.5C 346.71,49.3157 350.377,48.3157 354.5,49.5C 354.413,46.4017 354.913,46.0684 356,48.5C 357.204,47.5294 357.704,46.5294 357.5,45.5C 358.167,45.8333 358.833,46.1667 359.5,46.5C 364.142,44.506 368.809,42.506 373.5,40.5C 374.167,40.8333 374.833,41.1667 375.5,41.5C 376.831,40.4078 377.664,39.0745 378,37.5C 378.333,37.8333 378.667,38.1667 379,38.5C 381.74,37.7178 384.574,37.2178 387.5,37C 389.676,36.8371 391.509,36.0037 393,34.5C 393.414,34.9574 393.914,35.2907 394.5,35.5C 395.333,34.5 396.167,33.5 397,32.5C 398.223,34.9853 399.723,35.152 401.5,33C 400.5,32.6667 399.5,32.3333 398.5,32C 400.355,31.5779 402.189,31.0779 404,30.5C 408.213,29.2036 412.713,29.2036 417.5,30.5 Z"/></g>
<g><path style="opacity:0.004" fill="#000000" d="M 693.5,39.5 C 694.833,40.1667 694.833,40.1667 693.5,39.5 Z"/></g>
<g><path style="opacity:0.004" fill="#000000" d="M 712.5,45.5 C 713.833,46.1667 713.833,46.1667 712.5,45.5 Z"/></g>
<g><path style="opacity:0.004" fill="#000000" d="M 328.5,57.5 C 328.897,56.475 329.563,56.3083 330.5,57C 329.906,57.4643 329.239,57.631 328.5,57.5 Z"/></g>
<g><path style="opacity:0.004" fill="#000000" d="M 765.5,68.5 C 766.833,69.1667 766.833,69.1667 765.5,68.5 Z"/></g>
<g><path style="opacity:1" fill="#000000" d="M 916.5,789.5 C 903.499,778.507 890.165,767.841 876.5,757.5C 792.915,878.144 677.248,940.477 529.5,944.5C 406.301,942.416 303.468,896.083 221,805.5C 211.183,793.862 201.85,781.862 193,769.5C 181.591,778.787 170.091,787.954 158.5,797C 157.423,797.47 156.423,797.303 155.5,796.5C 74.8641,674.676 53.6974,543.009 92,401.5C 129.802,281.383 203.302,190.216 312.5,128C 441.793,60.6519 574.459,53.3185 710.5,106C 830.689,157.855 915.522,244.355 965,365.5C 1009.53,486.182 1006.19,605.515 955,723.5C 946.351,742.137 936.684,760.137 926,777.5C 923.296,782.018 920.129,786.018 916.5,789.5 Z"/></g>
<g><path style="opacity:0.004" fill="#000000" d="M 259.5,94.5 C 258.833,93.1667 258.833,93.1667 259.5,94.5 Z"/></g>
<g><path style="opacity:0.004" fill="#000000" d="M 809.5,93.5 C 810.833,94.1667 810.833,94.1667 809.5,93.5 Z"/></g>
<g><path style="opacity:0.004" fill="#000000" d="M 999.5,302.5 C 1000.83,303.167 1000.83,303.167 999.5,302.5 Z"/></g>
<g><path style="opacity:0.004" fill="#000000" d="M 62.5,319.5 C 61.8333,318.167 61.8333,318.167 62.5,319.5 Z"/></g>
<g><path style="opacity:1" fill="#026704" d="M 243.5,346.5 C 246.157,346.162 248.49,346.829 250.5,348.5C 255.627,356.125 261.627,362.959 268.5,369C 279.526,376.027 291.526,378.36 304.5,376C 308.848,375.427 313.181,374.76 317.5,374C 331.601,370.808 345.601,367.308 359.5,363.5C 370.403,363.863 377.57,369.197 381,379.5C 385.469,394.263 386.469,409.263 384,424.5C 379.371,452.887 371.204,480.221 359.5,506.5C 359.833,506.833 360.167,507.167 360.5,507.5C 373.257,500.708 385.424,493.042 397,484.5C 406.806,451.894 421.139,421.561 440,393.5C 448.54,381.817 459.04,372.317 471.5,365C 476.363,362.934 481.363,361.268 486.5,360C 502.379,359.214 509.213,366.714 507,382.5C 505.401,390.701 502.401,398.367 498,405.5C 491.165,417.174 483.832,428.507 476,439.5C 463.054,457.048 449.387,474.048 435,490.5C 423.001,522.829 412.001,555.496 402,588.5C 398.459,597.659 397.792,606.992 400,616.5C 402.497,618.478 405.331,618.978 408.5,618C 431.532,606.236 452.365,591.403 471,573.5C 482.274,531.295 499.274,491.628 522,454.5C 546.894,415.271 581.061,387.438 624.5,371C 671.073,359.563 694.073,377.896 693.5,426C 693.362,448.722 688.862,470.556 680,491.5C 665.328,528.843 647.994,564.843 628,599.5C 624.715,604.454 621.048,609.12 617,613.5C 616.493,614.996 616.993,616.163 618.5,617C 622.375,618.52 626.375,618.854 630.5,618C 634.4,616.435 638.066,614.435 641.5,612C 663.864,589.969 686.53,568.302 709.5,547C 723.458,535.355 738.125,524.688 753.5,515C 764.897,508.757 776.897,504.09 789.5,501C 795.846,499.716 801.68,500.883 807,504.5C 808.755,507.6 809.589,510.933 809.5,514.5C 805.354,542.121 794.187,566.455 776,587.5C 763.65,600.349 751.483,613.349 739.5,626.5C 741.187,627.568 742.854,627.401 744.5,626C 750.5,622 756.5,618 762.5,614C 783.53,598.148 804.197,581.815 824.5,565C 827.838,563.08 831.338,561.58 835,560.5C 838.808,560.469 840.641,562.302 840.5,566C 839.329,571.509 836.829,576.342 833,580.5C 826.833,587.333 820.333,593.833 813.5,600C 791.952,617.216 770.119,634.049 748,650.5C 747.078,673.109 742.078,694.776 733,715.5C 721.69,740.807 707.356,764.14 690,785.5C 679.077,798.195 666.244,808.362 651.5,816C 617.671,824.175 603.838,811.008 610,776.5C 614.062,758.378 621.395,741.712 632,726.5C 652.144,699.024 675.644,674.857 702.5,654C 701.275,652.437 699.775,651.27 698,650.5C 693.061,652.887 687.894,654.554 682.5,655.5C 677.928,655.429 675.428,653.096 675,648.5C 673.644,640.471 674.644,632.805 678,625.5C 679.167,624.333 680.333,623.167 681.5,622C 713.757,605.074 739.59,581.241 759,550.5C 762.986,544.195 766.153,537.528 768.5,530.5C 763.292,530.937 758.625,532.77 754.5,536C 725.846,558.311 698.679,582.477 673,608.5C 665.435,620.453 655.935,630.62 644.5,639C 634.761,645.434 624.094,647.767 612.5,646C 607.41,644.042 602.91,641.208 599,637.5C 586.515,653.986 571.015,666.82 552.5,676C 547.136,677.806 541.636,678.973 536,679.5C 530.713,678.887 525.546,677.72 520.5,676C 506.211,670.943 494.045,662.776 484,651.5C 479.391,645.877 476.057,639.543 474,632.5C 472.674,622.046 470.841,611.713 468.5,601.5C 450.163,621.345 430.163,639.179 408.5,655C 394.963,663.278 380.963,664.278 366.5,658C 357.863,649.641 354.697,639.474 357,627.5C 363.438,593.416 371.604,559.749 381.5,526.5C 381.167,525.833 380.833,525.167 380.5,524.5C 367.915,532.375 355.415,540.375 343,548.5C 329.958,576.921 315.624,604.587 300,631.5C 294.305,640.867 287.472,649.367 279.5,657C 266.046,666.58 252.379,666.913 238.5,658C 231.71,652.637 229.043,645.637 230.5,637C 229.955,627.013 232.455,617.847 238,609.5C 249.093,595.737 260.926,582.57 273.5,570C 283.667,560.5 293.833,551 304,541.5C 314.832,516.168 324.832,490.501 334,464.5C 340.189,448.057 343.355,431.057 343.5,413.5C 345.261,403.435 341.095,398.435 331,398.5C 315.219,401.424 299.386,401.924 283.5,400C 266.673,396.839 252.84,388.672 242,375.5C 234.804,365.34 235.304,355.674 243.5,346.5 Z"/></g>
<g><path style="opacity:0.24" fill="#000300" d="M 656.5,29.5 C 662.668,29.8754 667.668,30.8754 671.5,32.5C 672.993,33.4451 674.493,34.4451 676,35.5C 676.772,35.3552 677.439,35.0219 678,34.5C 678.519,35.5156 679.353,36.1822 680.5,36.5C 685.035,37.1923 689.369,38.1923 693.5,39.5C 690.833,39.8333 690.833,40.1667 693.5,40.5C 697.563,40.7422 701.563,42.0755 705.5,44.5C 706.442,44.3918 707.275,44.0585 708,43.5C 708.93,45.5524 710.43,47.0524 712.5,48C 713.744,48.4561 714.577,47.9561 715,46.5C 715.419,47.6721 716.085,48.6721 717,49.5C 718.049,48.4829 719.216,48.3162 720.5,49C 721.817,50.6591 723.483,51.8257 725.5,52.5C 726.192,51.9747 726.692,51.3081 727,50.5C 728.008,52.259 729.508,53.4257 731.5,54C 731.167,54.3333 730.833,54.6667 730.5,55C 733.334,55.0454 735.834,55.8787 738,57.5C 739.84,56.1669 740.34,56.3335 739.5,58C 741.853,59.9637 744.353,60.4637 747,59.5C 749.656,62.5842 752.823,64.0842 756.5,64C 758.125,64.8525 758.458,65.8525 757.5,67C 758.549,67.4922 759.549,67.3256 760.5,66.5C 762.201,67.5543 763.868,68.5543 765.5,69.5C 768.854,72.2218 773.021,74.5551 778,76.5C 778.914,75.3463 779.747,75.513 780.5,77C 780.167,77.3333 779.833,77.6667 779.5,78C 783.864,78.3945 787.864,79.7278 791.5,82C 791.167,82.3333 790.833,82.6667 790.5,83C 796.867,86.8467 803.2,90.6801 809.5,94.5C 869.695,132.191 920.028,180.358 960.5,239C 963.791,243.748 966.958,248.581 970,253.5C 970.908,255.439 972.408,256.439 974.5,256.5C 975.323,259.871 976.489,263.204 978,266.5C 982.656,273.806 987.323,281.14 992,288.5C 993.522,294.133 996.022,299.133 999.5,303.5C 1013.49,332.988 1025.32,363.655 1035,395.5C 1035.96,405.994 1038.79,415.827 1043.5,425C 1043.26,425.873 1042.93,426.707 1042.5,427.5C 1042.85,428.696 1043.35,428.696 1044,427.5C 1044.52,437.225 1045.52,446.891 1047,456.5C 1047.79,458.868 1048.96,461.034 1050.5,463C 1048.86,467.594 1049.19,471.927 1051.5,476C 1050.83,476.333 1050.17,476.667 1049.5,477C 1050.31,478.314 1051.31,479.481 1052.5,480.5C 1051.28,494.479 1051.45,508.479 1053,522.5C 1054.57,524.882 1055.4,527.549 1055.5,530.5C 1054.8,537.105 1054.8,543.605 1055.5,550C 1054.67,550.833 1053.83,551.667 1053,552.5C 1052.08,564.718 1051.24,576.885 1050.5,589C 1051.17,589.333 1051.83,589.667 1052.5,590C 1050.18,591.468 1049.85,593.301 1051.5,595.5C 1047.19,611.377 1044.36,627.377 1043,643.5C 1042.33,644.167 1041.67,644.833 1041,645.5C 1038.45,653.325 1036.61,661.325 1035.5,669.5C 1035.57,670.772 1035.9,671.938 1036.5,673C 1034.74,674.008 1033.57,675.508 1033,677.5C 1027.01,698.836 1019.51,719.503 1010.5,739.5C 1010.83,740.167 1011.17,740.833 1011.5,741.5C 1010.23,741.126 1009.06,741.792 1008,743.5C 1006.32,750.547 1003.49,757.047 999.5,763C 1000.83,764.84 1000.67,765.34 999,764.5C 991.557,779.855 983.557,794.855 975,809.5C 974.667,809.167 974.333,808.833 974,808.5C 970.743,813.346 967.243,818.012 963.5,822.5C 970.516,827.801 977.516,833.801 984.5,840.5C 986.315,841.791 987.315,843.624 987.5,846C 985.555,851.961 982.055,857.461 977,862.5C 976.332,866.499 974.165,869.332 970.5,871C 969.661,875.24 966.994,878.573 962.5,881C 962.833,881.333 963.167,881.667 963.5,882C 955.692,891.077 947.525,899.91 939,908.5C 938.383,909.449 938.549,910.282 939.5,911C 936.243,912.262 933.577,914.262 931.5,917C 931.833,917.333 932.167,917.667 932.5,918C 930.579,918.36 928.912,919.194 927.5,920.5C 926.289,921.274 926.289,922.107 927.5,923C 926.167,923.667 924.833,924.333 923.5,925C 919.668,928.176 916.502,932.009 914,936.5C 913.667,936.167 913.333,935.833 913,935.5C 906.731,941.697 900.231,947.53 893.5,953C 893.833,953.333 894.167,953.667 894.5,954C 892.275,954.561 890.275,955.561 888.5,957C 882.682,961.839 877.516,966.673 873,971.5C 872.667,971.167 872.333,970.833 872,970.5C 868.568,973.457 865.735,976.124 863.5,978.5C 863.167,977.167 862.833,977.167 862.5,978.5C 858.248,980.167 854.414,983.167 851,987.5C 850.282,986.549 849.449,986.383 848.5,987C 849.863,989.129 849.529,989.629 847.5,988.5C 845.1,991.042 841.766,993.209 837.5,995C 837.833,995.333 838.167,995.667 838.5,996C 834.061,997.968 830.061,1000.47 826.5,1003.5C 824.641,1004.59 822.641,1005.43 820.5,1006C 816.828,1010.04 812.661,1012.54 808,1013.5C 807.077,1014.76 806.243,1016.09 805.5,1017.5C 803.234,1016.44 801.234,1016.94 799.5,1019C 799.833,1019.33 800.167,1019.67 800.5,1020C 799.451,1020.49 798.451,1020.33 797.5,1019.5C 795.729,1020.04 795.396,1020.87 796.5,1022C 793.898,1022.98 791.398,1024.14 789,1025.5C 784.716,1025.82 781.049,1027.82 778,1031.5C 775.882,1030.26 774.049,1030.59 772.5,1032.5C 771.167,1032.83 771.167,1033.17 772.5,1033.5C 771.811,1034.77 770.977,1034.77 770,1033.5C 769.492,1035.9 768.325,1036.57 766.5,1035.5C 764.383,1037.83 761.716,1039 758.5,1039C 756.699,1039.32 756.366,1039.98 757.5,1041C 754.529,1041.79 751.529,1042.46 748.5,1043C 749.711,1043.89 749.711,1044.73 748.5,1045.5C 747.232,1044.57 745.899,1044.41 744.5,1045C 742.406,1045.86 741.406,1047.03 741.5,1048.5C 740.833,1048.17 740.167,1047.83 739.5,1047.5C 737.458,1049.71 735.125,1050.38 732.5,1049.5C 732.264,1050.25 731.93,1051.08 731.5,1052C 727.269,1052.24 723.602,1053.74 720.5,1056.5C 717.349,1055.33 714.682,1056 712.5,1058.5C 711.448,1058.35 710.448,1058.52 709.5,1059C 709.833,1059.33 710.167,1059.67 710.5,1060C 709.146,1061.29 707.812,1061.46 706.5,1060.5C 702.191,1062.98 697.858,1064.31 693.5,1064.5C 692.448,1064.35 691.448,1064.52 690.5,1065C 690.833,1065.33 691.167,1065.67 691.5,1066C 689.99,1066.85 688.49,1067.68 687,1068.5C 686.055,1068.09 685.388,1067.43 685,1066.5C 682.899,1067.92 680.733,1069.26 678.5,1070.5C 677.468,1068.96 676.135,1068.46 674.5,1069C 675.167,1069.67 675.833,1070.33 676.5,1071C 673.514,1070.87 670.514,1070.87 667.5,1071C 663.231,1072.59 658.898,1074.09 654.5,1075.5C 654.167,1074.17 653.833,1074.17 653.5,1075.5C 651.265,1075.21 649.265,1075.54 647.5,1076.5C 646.127,1076.34 644.793,1076.51 643.5,1077C 644.167,1077.33 644.833,1077.67 645.5,1078C 644.584,1078.28 643.918,1078.78 643.5,1079.5C 642.833,1079.5 642.167,1079.5 641.5,1079.5C 641.189,1078.52 640.522,1077.86 639.5,1077.5C 637.343,1078.05 635.343,1078.72 633.5,1079.5C 624.833,1079.5 616.167,1079.5 607.5,1079.5C 765.373,1053.85 890.873,976.521 984,847.5C 984.982,846.241 985.315,844.908 985,843.5C 976.818,837.407 968.818,831.074 961,824.5C 960.678,822.311 961.178,820.311 962.5,818.5C 1020.58,731.409 1049.58,635.242 1049.5,530C 1046.65,385.693 994.317,263.027 892.5,162C 823.94,96.5417 743.273,52.7084 650.5,30.5C 652.735,30.7947 654.735,30.4614 656.5,29.5 Z M 671.5,32.5 C 671.489,35.0009 670.822,35.1676 669.5,33C 670.094,32.5357 670.761,32.369 671.5,32.5 Z"/></g>
<g><path style="opacity:0.891" fill="#066108" d="M 613.5,23.5 C 613.833,23.5 614.167,23.5 614.5,23.5C 626.379,25.8165 638.379,28.1499 650.5,30.5C 743.273,52.7084 823.94,96.5417 892.5,162C 994.317,263.027 1046.65,385.693 1049.5,530C 1049.58,635.242 1020.58,731.409 962.5,818.5C 962.737,817.209 962.404,816.209 961.5,815.5C 988.808,773.207 1009.97,727.874 1025,679.5C 1063.63,542.413 1049.63,411.08 983,285.5C 910.971,160.021 805.138,77.5206 665.5,38C 509.558,0.325929 365.891,26.9926 234.5,118C 122.485,201.773 53.9845,312.94 29,451.5C 9.50247,587.153 38.0025,711.487 114.5,824.5C 112.965,823.646 111.632,823.646 110.5,824.5C 33.0134,709.1 5.18004,582.433 27,444.5C 52.5526,310.076 119.386,201.576 227.5,119C 258.794,96.1804 292.127,76.6804 327.5,60.5C 356.958,48.6413 386.958,38.6413 417.5,30.5C 418.167,30.5 418.833,30.5 419.5,30.5C 431.266,28.043 442.933,25.7097 454.5,23.5C 469.14,21.8179 483.807,20.3179 498.5,19C 536.979,16.7406 575.313,18.2406 613.5,23.5 Z"/></g>
<g><path style="opacity:1" fill="#066008" d="M 202.5,173.5 C 203.833,174.167 204.833,175.167 205.5,176.5C 115.919,259.846 64.4191,362.846 51,485.5C 41.2667,604.581 69.9333,713.247 137,811.5C 137.671,812.252 138.504,812.586 139.5,812.5C 138.791,813.404 137.791,813.737 136.5,813.5C 136.715,815.179 136.048,816.179 134.5,816.5C 134.611,815.883 134.944,815.383 135.5,815C 86.3717,744.864 57.205,667.031 48,581.5C 35.8072,420.855 87.3072,284.855 202.5,173.5 Z"/></g>
<g><path style="opacity:1" fill="#086209" d="M 218.5,159.5 C 219.833,160.167 220.833,161.167 221.5,162.5C 217.852,165.142 214.185,167.809 210.5,170.5C 209.5,170.167 208.833,169.5 208.5,168.5C 211.859,165.471 215.192,162.471 218.5,159.5 Z"/></g>
<g><path style="opacity:1" fill="#0b640c" d="M 846.5,156.5 C 848.167,157.833 849.833,159.167 851.5,160.5C 851.573,162.027 850.906,163.027 849.5,163.5C 847.64,162.061 845.973,160.395 844.5,158.5C 844.833,157.5 845.5,156.833 846.5,156.5 Z"/></g>
<g><path style="opacity:1" fill="#f7f8f7" d="M 208.5,168.5 C 208.833,169.5 209.5,170.167 210.5,170.5C 212.127,172.63 213.96,174.63 216,176.5C 217.289,178.055 217.956,179.721 218,181.5C 216.667,182.833 215.333,184.167 214,185.5C 210.962,182.631 208.129,179.631 205.5,176.5C 204.833,175.167 203.833,174.167 202.5,173.5C 200.539,171.037 198.372,168.703 196,166.5C 193.667,168.833 191.333,171.167 189,173.5C 187.437,172.275 186.27,170.775 185.5,169C 191.633,162.536 198.133,156.369 205,150.5C 206.5,152 208,153.5 209.5,155C 206.689,156.644 204.356,158.81 202.5,161.5C 204.281,164.091 206.281,166.425 208.5,168.5 Z"/></g>
<g><path style="opacity:1" fill="#f9f9f9" d="M 872.5,178.5 C 871.292,179.234 869.959,179.567 868.5,179.5C 862.113,179.298 856.947,176.631 853,171.5C 851,173.5 849,175.5 847,177.5C 845.442,175.641 843.609,174.141 841.5,173C 844.002,169.667 846.668,166.501 849.5,163.5C 850.906,163.027 851.573,162.027 851.5,160.5C 855.479,157.188 859.146,153.521 862.5,149.5C 868.146,153.312 872.979,157.979 877,163.5C 879.551,169.727 878.051,174.727 872.5,178.5 Z"/></g>
<g><path style="opacity:1" fill="#145513" d="M 857.5,166.5 C 860.427,167.757 862.761,169.757 864.5,172.5C 861.573,171.243 859.239,169.243 857.5,166.5 Z"/></g>
<g><path style="opacity:1" fill="#020202" d="M 864.5,172.5 C 862.761,169.757 860.427,167.757 857.5,166.5C 859.833,163.997 861.999,161.331 864,158.5C 867.065,161.062 869.565,164.062 871.5,167.5C 870.527,171.148 868.193,172.814 864.5,172.5 Z"/></g>
<g><path style="opacity:1" fill="#0a610b" d="M 247.5,136.5 C 248.833,137.167 249.833,138.167 250.5,139.5C 248.228,140.441 246.228,141.774 244.5,143.5C 243.5,143.167 242.833,142.5 242.5,141.5C 243.973,139.605 245.64,137.939 247.5,136.5 Z"/></g>
<g><path style="opacity:1" fill="#0b630b" d="M 810.5,129.5 C 813.135,130.811 815.469,132.478 817.5,134.5C 817.167,135.5 816.5,136.167 815.5,136.5C 812.953,135.066 810.619,133.4 808.5,131.5C 809.5,131.167 810.167,130.5 810.5,129.5 Z"/></g>
<g><path style="opacity:1" fill="#f8f8f8" d="M 242.5,141.5 C 242.833,142.5 243.5,143.167 244.5,143.5C 246.783,146.797 249.116,150.131 251.5,153.5C 249.517,154.982 247.684,156.649 246,158.5C 243.325,154.995 240.491,151.661 237.5,148.5C 233.833,151.333 230.167,154.167 226.5,157C 229.286,160.074 231.952,163.241 234.5,166.5C 233.141,168.692 231.308,170.359 229,171.5C 226.636,168.31 224.136,165.31 221.5,162.5C 220.833,161.167 219.833,160.167 218.5,159.5C 215.887,155.127 212.887,150.961 209.5,147C 211.043,145.122 212.876,143.622 215,142.5C 217.38,145.924 220.213,148.924 223.5,151.5C 227.019,148.904 230.352,146.071 233.5,143C 231.045,139.922 228.711,136.756 226.5,133.5C 228.483,132.018 230.316,130.351 232,128.5C 235.04,133.269 238.54,137.603 242.5,141.5 Z"/></g>
<g><path style="opacity:1" fill="#f8f9f8" d="M 830.5,143.5 C 830.121,146.567 831.121,147.567 833.5,146.5C 839.383,144.309 845.217,141.976 851,139.5C 852.351,141.019 853.851,142.352 855.5,143.5C 852.059,147.594 849.059,151.927 846.5,156.5C 845.5,156.833 844.833,157.5 844.5,158.5C 841.531,161.642 838.698,164.975 836,168.5C 834.478,166.978 832.978,165.478 831.5,164C 833.724,160.374 836.057,156.874 838.5,153.5C 840.446,152.746 841.279,151.412 841,149.5C 839.124,150.609 837.291,151.609 835.5,152.5C 831.916,153.975 828.249,154.808 824.5,155C 823.26,150.866 823.26,146.699 824.5,142.5C 824.888,136.301 823.888,135.967 821.5,141.5C 819.031,144.144 816.698,146.977 814.5,150C 812.721,149.956 811.055,149.289 809.5,148C 808.549,147.282 808.383,146.449 809,145.5C 811.385,142.621 813.552,139.621 815.5,136.5C 816.5,136.167 817.167,135.5 817.5,134.5C 820.36,130.645 823.36,126.812 826.5,123C 829.494,122.635 831.494,123.969 832.5,127C 831.505,132.458 830.838,137.958 830.5,143.5 Z"/></g>
<g><path style="opacity:1" fill="#235522" d="M 838.5,153.5 C 837.609,152.89 836.609,152.557 835.5,152.5C 837.291,151.609 839.124,150.609 841,149.5C 841.279,151.412 840.446,152.746 838.5,153.5 Z"/></g>
<g><path style="opacity:1" fill="#0d640f" d="M 830.5,143.5 C 831.833,144.167 832.833,145.167 833.5,146.5C 831.121,147.567 830.121,146.567 830.5,143.5 Z"/></g>
<g><path style="opacity:1" fill="#23661f" d="M 824.5,142.5 C 823.391,142.443 822.391,142.11 821.5,141.5C 823.888,135.967 824.888,136.301 824.5,142.5 Z"/></g>
<g><path style="opacity:1" fill="#0a630b" d="M 785.5,113.5 C 787.853,114.34 789.853,115.674 791.5,117.5C 791.672,118.492 791.338,119.158 790.5,119.5C 788.517,118.529 786.517,117.529 784.5,116.5C 784.557,115.391 784.89,114.391 785.5,113.5 Z"/></g>
<g><path style="opacity:1" fill="#076109" d="M 284.5,112.5 C 285.11,113.391 285.443,114.391 285.5,115.5C 279.842,119.665 273.842,123.332 267.5,126.5C 267.443,125.391 267.11,124.391 266.5,123.5C 272.5,119.833 278.5,116.167 284.5,112.5 Z"/></g>
<g><path style="opacity:1" fill="#f9f9f8" d="M 266.5,123.5 C 267.11,124.391 267.443,125.391 267.5,126.5C 263.471,128.85 259.804,131.683 256.5,135C 257.536,136.901 258.702,138.735 260,140.5C 264.667,137.167 269.333,133.833 274,130.5C 274.785,132.286 275.951,133.786 277.5,135C 270.93,140.202 264.097,145.035 257,149.5C 255.004,146.014 252.837,142.681 250.5,139.5C 249.833,138.167 248.833,137.167 247.5,136.5C 245.106,132.055 242.44,127.722 239.5,123.5C 245.66,118.92 251.993,114.586 258.5,110.5C 260.361,111.528 261.695,113.028 262.5,115C 258.247,117.71 254.08,120.543 250,123.5C 249.551,126.094 250.551,128.094 253,129.5C 256.667,126.833 260.333,124.167 264,121.5C 264.708,122.381 265.542,123.047 266.5,123.5 Z"/></g>
<g><path style="opacity:1" fill="#f7f7f7" d="M 810.5,129.5 C 810.167,130.5 809.5,131.167 808.5,131.5C 804.846,128.696 801.013,126.03 797,123.5C 795.634,125.37 794.467,127.37 793.5,129.5C 797.994,132.914 802.66,136.081 807.5,139C 806.695,140.972 805.361,142.472 803.5,143.5C 796.661,139.248 789.994,134.748 783.5,130C 786.216,126.729 788.549,123.229 790.5,119.5C 791.338,119.158 791.672,118.492 791.5,117.5C 794.809,113.185 798.143,108.852 801.5,104.5C 807.801,108.303 813.968,112.303 820,116.5C 820.369,119.951 818.869,121.451 815.5,121C 811.833,118.5 808.167,116 804.5,113.5C 802.937,114.945 801.604,116.611 800.5,118.5C 804.361,121.528 808.361,124.361 812.5,127C 811.619,127.708 810.953,128.542 810.5,129.5 Z"/></g>
<g><path style="opacity:1" fill="#0c610c" d="M 316.5,94.5 C 317.345,95.6715 318.011,97.0048 318.5,98.5C 316.046,99.2271 313.713,100.227 311.5,101.5C 310.89,100.609 310.557,99.609 310.5,98.5C 312.5,97.1667 314.5,95.8333 316.5,94.5 Z"/></g>
<g><path style="opacity:1" fill="#095f0a" d="M 742.5,90.5 C 748.65,92.7396 754.316,95.7396 759.5,99.5C 759.672,100.492 759.338,101.158 758.5,101.5C 752.5,98.8333 746.5,96.1667 740.5,93.5C 740.932,92.2905 741.599,91.2905 742.5,90.5 Z"/></g>
<g><path style="opacity:1" fill="#f7f8f7" d="M 785.5,113.5 C 784.89,114.391 784.557,115.391 784.5,116.5C 782.189,119.767 779.856,123.1 777.5,126.5C 775.336,125.586 773.336,124.419 771.5,123C 773.374,119.419 775.374,115.919 777.5,112.5C 773.936,109.798 770.103,107.465 766,105.5C 763.428,108.968 761.095,112.635 759,116.5C 756.856,115.354 755.023,113.854 753.5,112C 755.058,108.387 756.725,104.887 758.5,101.5C 759.338,101.158 759.672,100.492 759.5,99.5C 762.476,94.8981 765.476,90.2314 768.5,85.5C 770.167,86.3333 771.833,87.1667 773.5,88C 773.056,91.9128 771.39,95.5794 768.5,99C 772.418,101.877 776.585,104.377 781,106.5C 782.746,102.673 784.746,99.0066 787,95.5C 789.25,96.7079 791.417,98.0413 793.5,99.5C 790.821,104.194 788.155,108.861 785.5,113.5 Z"/></g>
<g><path style="opacity:1" fill="#f7f7f7" d="M 310.5,98.5 C 310.557,99.609 310.89,100.609 311.5,101.5C 313.615,104.891 315.615,108.391 317.5,112C 315.664,113.419 313.664,114.586 311.5,115.5C 309.226,111.932 306.726,108.599 304,105.5C 299.777,107.027 295.944,109.193 292.5,112C 294.7,115.371 296.7,118.871 298.5,122.5C 296.513,124.501 294.18,125.335 291.5,125C 289.85,121.515 287.85,118.349 285.5,115.5C 285.443,114.391 285.11,113.391 284.5,112.5C 281.971,107.945 279.304,103.445 276.5,99C 278.37,97.6338 280.37,96.4672 282.5,95.5C 284.802,98.9701 287.302,102.303 290,105.5C 294.103,103.535 297.936,101.202 301.5,98.5C 299.444,95.5546 297.777,92.3879 296.5,89C 297.775,86.9291 299.609,85.4291 302,84.5C 304.608,89.3968 307.441,94.0635 310.5,98.5 Z"/></g>
<g><path style="opacity:1" fill="#0b610c" d="M 347.5,81.5 C 347.5,82.5 347.5,83.5 347.5,84.5C 344.251,86.0277 340.918,87.3611 337.5,88.5C 337.5,87.5 337.5,86.5 337.5,85.5C 340.603,83.6157 343.937,82.2824 347.5,81.5 Z"/></g>
<g><path style="opacity:1" fill="#0d630d" d="M 716.5,79.5 C 718.553,79.4021 720.22,80.0687 721.5,81.5C 721.672,82.4916 721.338,83.1583 720.5,83.5C 718.784,83.3713 717.117,83.038 715.5,82.5C 715.557,81.391 715.89,80.391 716.5,79.5 Z"/></g>
<g><path style="opacity:1" fill="#066108" d="M 377.5,69.5 C 377.833,70.8333 378.167,72.1667 378.5,73.5C 375.779,73.9628 373.112,74.6295 370.5,75.5C 369.5,75.1667 368.833,74.5 368.5,73.5C 371.261,71.7951 374.261,70.4617 377.5,69.5 Z"/></g>
<g><path style="opacity:1" fill="#f5f6f5" d="M 337.5,85.5 C 337.5,86.5 337.5,87.5 337.5,88.5C 333.047,89.8922 329.047,92.0588 325.5,95C 326.112,97.0577 327.112,98.891 328.5,100.5C 333.288,98.0225 338.121,95.6891 343,93.5C 345.064,95.2433 345.564,97.2433 344.5,99.5C 337.467,102.433 330.634,105.766 324,109.5C 322.153,105.807 320.32,102.14 318.5,98.5C 318.011,97.0048 317.345,95.6715 316.5,94.5C 314.335,89.8561 312.501,85.1894 311,80.5C 317.879,77.3107 324.712,73.9773 331.5,70.5C 332.752,72.0009 333.752,73.6675 334.5,75.5C 329.531,77.9844 324.531,80.4844 319.5,83C 320.12,85.2123 321.287,87.0456 323,88.5C 327.139,86.7636 331.139,84.7636 335,82.5C 335.852,83.5707 336.685,84.5707 337.5,85.5 Z"/></g>
<g><path style="opacity:1" fill="#f8f8f8" d="M 742.5,90.5 C 741.599,91.2905 740.932,92.2905 740.5,93.5C 736.186,92.2615 732.019,90.5948 728,88.5C 726.009,91.7638 724.009,95.0971 722,98.5C 719.527,97.967 717.693,96.6337 716.5,94.5C 718.129,90.9149 719.462,87.2482 720.5,83.5C 721.338,83.1583 721.672,82.4916 721.5,81.5C 723.97,76.5608 726.47,71.5608 729,66.5C 736.243,69.8719 743.41,73.3719 750.5,77C 749.624,78.586 748.624,80.086 747.5,81.5C 742.833,79.5 738.167,77.5 733.5,75.5C 732.041,77.583 730.708,79.7497 729.5,82C 733.29,84.3772 737.29,86.3772 741.5,88C 742.252,88.6708 742.586,89.5041 742.5,90.5 Z"/></g>
<g><path style="opacity:1" fill="#075f08" d="M 665.5,61.5 C 671.659,63.3307 677.659,65.3307 683.5,67.5C 683.5,68.5 683.5,69.5 683.5,70.5C 678.15,68.8302 672.817,67.1636 667.5,65.5C 666.833,64.1667 666.167,62.8333 665.5,61.5 Z"/></g>
<g><path style="opacity:1" fill="#010201" d="M 512.5,47.5 C 515.167,47.5 517.833,47.5 520.5,47.5C 520.5,51.5 520.5,55.5 520.5,59.5C 523.167,59.5 525.833,59.5 528.5,59.5C 528.5,56.5 528.5,53.5 528.5,50.5C 530.527,50.3379 532.527,50.5045 534.5,51C 536.5,53.6667 538.5,56.3333 540.5,59C 543.167,59.6667 545.833,59.6667 548.5,59C 546.494,55.9832 544.494,52.9832 542.5,50C 543.13,48.6898 544.13,47.8565 545.5,47.5C 550.5,47.5 555.5,47.5 560.5,47.5C 559.564,51.7352 559.231,56.0685 559.5,60.5C 562.167,60.5 564.833,60.5 567.5,60.5C 567.5,56.5 567.5,52.5 567.5,48.5C 572.181,48.6686 576.848,49.0019 581.5,49.5C 581.589,52.7086 581.256,55.8752 580.5,59C 580.755,60.3261 581.422,61.3261 582.5,62C 588.845,62.7514 595.178,63.5847 601.5,64.5C 604.8,63.916 606.134,61.916 605.5,58.5C 599.783,58.2069 594.116,57.5402 588.5,56.5C 588.261,54.5328 588.594,52.6995 589.5,51C 594.204,50.3523 598.871,50.519 603.5,51.5C 606.003,52.3705 608.67,53.0372 611.5,53.5C 611.314,57.448 610.648,61.2813 609.5,65C 612.063,66.0793 614.729,66.5793 617.5,66.5C 617.575,63.7938 617.908,61.1272 618.5,58.5C 621.059,58.3896 623.392,59.0562 625.5,60.5C 626.942,63.0496 628.108,65.7163 629,68.5C 631.694,69.883 634.527,70.383 637.5,70C 635.562,66.7905 633.895,63.4572 632.5,60C 633.693,58.9054 635.027,58.072 636.5,57.5C 641.327,59.0722 646.327,60.4055 651.5,61.5C 654.343,62.1717 656.843,63.505 659,65.5C 659.684,66.7839 659.517,67.9505 658.5,69C 652.628,69.9312 647.795,68.0979 644,63.5C 640.3,65.5544 639.8,68.0544 642.5,71C 648.982,75.5895 655.982,76.5895 663.5,74C 665.782,71.6026 667.116,68.7693 667.5,65.5C 672.817,67.1636 678.15,68.8302 683.5,70.5C 683.081,78.4982 686.415,84.3315 693.5,88C 702.147,91.1693 709.48,89.336 715.5,82.5C 717.117,83.038 718.784,83.3713 720.5,83.5C 719.462,87.2482 718.129,90.9149 716.5,94.5C 717.693,96.6337 719.527,97.967 722,98.5C 724.009,95.0971 726.009,91.7638 728,88.5C 732.019,90.5948 736.186,92.2615 740.5,93.5C 746.5,96.1667 752.5,98.8333 758.5,101.5C 756.725,104.887 755.058,108.387 753.5,112C 755.023,113.854 756.856,115.354 759,116.5C 761.095,112.635 763.428,108.968 766,105.5C 770.103,107.465 773.936,109.798 777.5,112.5C 775.374,115.919 773.374,119.419 771.5,123C 773.336,124.419 775.336,125.586 777.5,126.5C 779.856,123.1 782.189,119.767 784.5,116.5C 786.517,117.529 788.517,118.529 790.5,119.5C 788.549,123.229 786.216,126.729 783.5,130C 789.994,134.748 796.661,139.248 803.5,143.5C 805.361,142.472 806.695,140.972 807.5,139C 802.66,136.081 797.994,132.914 793.5,129.5C 794.467,127.37 795.634,125.37 797,123.5C 801.013,126.03 804.846,128.696 808.5,131.5C 810.619,133.4 812.953,135.066 815.5,136.5C 813.552,139.621 811.385,142.621 809,145.5C 808.383,146.449 808.549,147.282 809.5,148C 811.055,149.289 812.721,149.956 814.5,150C 816.698,146.977 819.031,144.144 821.5,141.5C 822.391,142.11 823.391,142.443 824.5,142.5C 823.26,146.699 823.26,150.866 824.5,155C 828.249,154.808 831.916,153.975 835.5,152.5C 836.609,152.557 837.609,152.89 838.5,153.5C 836.057,156.874 833.724,160.374 831.5,164C 832.978,165.478 834.478,166.978 836,168.5C 838.698,164.975 841.531,161.642 844.5,158.5C 845.973,160.395 847.64,162.061 849.5,163.5C 846.668,166.501 844.002,169.667 841.5,173C 843.609,174.141 845.442,175.641 847,177.5C 849,175.5 851,173.5 853,171.5C 856.947,176.631 862.113,179.298 868.5,179.5C 976.161,285.243 1026.33,413.909 1019,565.5C 1013.04,651.371 986.377,730.038 939,801.5C 938.241,803.063 937.074,804.063 935.5,804.5C 931.751,801.112 927.751,797.945 923.5,795C 921.859,793.871 920.859,792.371 920.5,790.5C 969.312,718.225 995.479,638.225 999,550.5C 1001.68,405.393 950.176,283.893 844.5,186C 737.503,94.123 613.503,56.123 472.5,72C 339.133,92.5633 232.966,157.063 154,265.5C 81.8924,371.349 56.2258,487.683 77,614.5C 89.2072,681.351 114.707,742.351 153.5,797.5C 153.414,798.496 153.748,799.329 154.5,800C 149.429,804.185 144.429,808.352 139.5,812.5C 138.504,812.586 137.671,812.252 137,811.5C 69.9333,713.247 41.2667,604.581 51,485.5C 64.4191,362.846 115.919,259.846 205.5,176.5C 208.129,179.631 210.962,182.631 214,185.5C 215.333,184.167 216.667,182.833 218,181.5C 217.956,179.721 217.289,178.055 216,176.5C 213.96,174.63 212.127,172.63 210.5,170.5C 214.185,167.809 217.852,165.142 221.5,162.5C 224.136,165.31 226.636,168.31 229,171.5C 231.308,170.359 233.141,168.692 234.5,166.5C 231.952,163.241 229.286,160.074 226.5,157C 230.167,154.167 233.833,151.333 237.5,148.5C 240.491,151.661 243.325,154.995 246,158.5C 247.684,156.649 249.517,154.982 251.5,153.5C 249.116,150.131 246.783,146.797 244.5,143.5C 246.228,141.774 248.228,140.441 250.5,139.5C 252.837,142.681 255.004,146.014 257,149.5C 264.097,145.035 270.93,140.202 277.5,135C 275.951,133.786 274.785,132.286 274,130.5C 269.333,133.833 264.667,137.167 260,140.5C 258.702,138.735 257.536,136.901 256.5,135C 259.804,131.683 263.471,128.85 267.5,126.5C 273.842,123.332 279.842,119.665 285.5,115.5C 287.85,118.349 289.85,121.515 291.5,125C 294.18,125.335 296.513,124.501 298.5,122.5C 296.7,118.871 294.7,115.371 292.5,112C 295.944,109.193 299.777,107.027 304,105.5C 306.726,108.599 309.226,111.932 311.5,115.5C 313.664,114.586 315.664,113.419 317.5,112C 315.615,108.391 313.615,104.891 311.5,101.5C 313.713,100.227 316.046,99.2271 318.5,98.5C 320.32,102.14 322.153,105.807 324,109.5C 330.634,105.766 337.467,102.433 344.5,99.5C 345.564,97.2433 345.064,95.2433 343,93.5C 338.121,95.6891 333.288,98.0225 328.5,100.5C 327.112,98.891 326.112,97.0577 325.5,95C 329.047,92.0588 333.047,89.8922 337.5,88.5C 340.918,87.3611 344.251,86.0277 347.5,84.5C 346.833,89.1595 346.667,93.8262 347,98.5C 349.088,97.6919 351.088,96.6919 353,95.5C 353.226,92.905 353.726,90.405 354.5,88C 359.021,85.8222 363.687,84.4889 368.5,84C 370,85.5 371.5,87 373,88.5C 375.185,87.3305 377.351,86.1638 379.5,85C 376.296,81.9641 373.296,78.7974 370.5,75.5C 373.112,74.6295 375.779,73.9628 378.5,73.5C 379.697,77.0946 380.697,80.7612 381.5,84.5C 388.361,82.9511 395.027,80.7844 401.5,78C 406.395,74.3774 408.728,69.5441 408.5,63.5C 409.833,63.5 411.167,63.5 412.5,63.5C 416.472,69.4864 422.139,72.3197 429.5,72C 437.09,78.3737 444.09,77.8737 450.5,70.5C 449.833,69.1667 448.833,68.1667 447.5,67.5C 444.77,70.4416 441.77,70.9416 438.5,69C 443.096,65.6403 445.429,61.1403 445.5,55.5C 447.435,54.8505 449.435,54.5172 451.5,54.5C 453.007,61.1734 457.174,64.8401 464,65.5C 474.342,65.6567 479.508,60.6567 479.5,50.5C 482.127,49.9084 484.794,49.5751 487.5,49.5C 486.174,53.1431 484.84,56.8098 483.5,60.5C 489.672,63.1964 492.672,61.1964 492.5,54.5C 497.512,54.0801 502.512,53.9134 507.5,54C 509.371,59.2255 513.038,60.8922 518.5,59C 515.837,55.5066 513.837,51.6733 512.5,47.5 Z"/></g>
<g><path style="opacity:1" fill="#066008" d="M 920.5,790.5 C 918.901,790.768 917.568,790.434 916.5,789.5C 920.129,786.018 923.296,782.018 926,777.5C 936.684,760.137 946.351,742.137 955,723.5C 1006.19,605.515 1009.53,486.182 965,365.5C 915.522,244.355 830.689,157.855 710.5,106C 574.459,53.3185 441.793,60.6519 312.5,128C 203.302,190.216 129.802,281.383 92,401.5C 53.6974,543.009 74.8641,674.676 155.5,796.5C 154.508,796.328 153.842,796.662 153.5,797.5C 114.707,742.351 89.2072,681.351 77,614.5C 56.2258,487.683 81.8924,371.349 154,265.5C 232.966,157.063 339.133,92.5633 472.5,72C 613.503,56.123 737.503,94.123 844.5,186C 950.176,283.893 1001.68,405.393 999,550.5C 995.479,638.225 969.312,718.225 920.5,790.5 Z"/></g>
<g><path style="opacity:1" fill="#0b320d" d="M 717.5,375.5 C 717.5,376.5 717.5,377.5 717.5,378.5C 714.606,378.042 712.106,378.709 710,380.5C 709.601,380.272 709.435,379.938 709.5,379.5C 711.982,378.011 714.648,376.677 717.5,375.5 Z"/></g>
<g><path style="opacity:1" fill="#036605" d="M 717.5,375.5 C 714.648,376.677 711.982,378.011 709.5,379.5C 705.029,378.59 700.695,379.256 696.5,381.5C 693.846,382.268 691.179,382.434 688.5,382C 684.657,376.991 680.324,372.491 675.5,368.5C 678.088,367.416 680.255,365.749 682,363.5C 684.229,366.156 686.062,365.823 687.5,362.5C 691.05,361.984 694.383,360.984 697.5,359.5C 699.572,361.433 701.905,361.433 704.5,359.5C 705.5,360.167 706.5,360.833 707.5,361.5C 708.48,360.019 709.647,358.685 711,357.5C 713.927,358.042 716.76,357.375 719.5,355.5C 720.142,358.797 721.309,359.131 723,356.5C 723.333,357.5 723.667,358.5 724,359.5C 726.333,358.167 728.667,356.833 731,355.5C 731.333,356.833 731.667,358.167 732,359.5C 733.194,358.57 734.527,357.903 736,357.5C 743.675,359.229 751.509,360.062 759.5,360C 758.672,360.915 757.672,361.581 756.5,362C 752.205,362.912 747.872,363.579 743.5,364C 744.5,365 745.5,366 746.5,367C 742.654,368.669 738.654,369.836 734.5,370.5C 735.494,373.399 734.494,374.066 731.5,372.5C 730.614,373.325 730.281,374.325 730.5,375.5C 727.428,375.187 724.595,375.854 722,377.5C 720.415,376.956 718.915,376.289 717.5,375.5 Z"/></g>
<g><path style="opacity:1" fill="#036405" d="M 568.5,349.5 C 568.56,348.957 568.893,348.624 569.5,348.5C 571.981,350.805 574.314,350.805 576.5,348.5C 577.833,349.167 579.167,349.833 580.5,350.5C 580.833,349.833 581.167,349.167 581.5,348.5C 583.422,349.711 585.255,351.044 587,352.5C 587.333,351.5 587.667,350.5 588,349.5C 589.667,350.833 591.333,352.167 593,353.5C 593.333,352.5 593.667,351.5 594,350.5C 595.815,352.405 597.815,354.072 600,355.5C 600.308,354.692 600.808,354.025 601.5,353.5C 603.149,354.648 604.649,355.981 606,357.5C 606.308,356.692 606.808,356.025 607.5,355.5C 608.814,356.313 609.981,357.313 611,358.5C 611.423,357.044 612.256,356.544 613.5,357C 614.667,358.167 615.833,359.333 617,360.5C 617.333,359.833 617.667,359.167 618,358.5C 619.663,360.158 620.496,362.158 620.5,364.5C 613.027,366.569 606.027,369.736 599.5,374C 597.098,374.814 594.765,374.647 592.5,373.5C 588.5,372.167 584.5,370.833 580.5,369.5C 580.709,368.914 581.043,368.414 581.5,368C 579.167,367.667 576.833,367.333 574.5,367C 574.833,366.667 575.167,366.333 575.5,366C 573.423,365.808 571.423,365.308 569.5,364.5C 569.709,363.914 570.043,363.414 570.5,363C 565.841,361.854 561.841,360.187 558.5,358C 559.328,357.085 560.328,356.419 561.5,356C 556.833,354 552.167,352 547.5,350C 552.524,349.919 557.524,350.419 562.5,351.5C 565.055,349.927 567.055,349.26 568.5,349.5 Z"/></g>
<g><path style="opacity:1" fill="#036505" d="M 738.5,276.5 C 739.043,276.56 739.376,276.893 739.5,277.5C 736.5,282.833 733.5,288.167 730.5,293.5C 730.709,294.086 731.043,294.586 731.5,295C 729.833,296.667 728.167,298.333 726.5,300C 727.167,300.667 727.833,301.333 728.5,302C 726.5,303.667 724.5,305.333 722.5,307C 723.328,307.915 724.328,308.581 725.5,309C 723.833,310.667 722.167,312.333 720.5,314C 721.167,314.333 721.833,314.667 722.5,315C 719.433,317.684 717.1,320.35 715.5,323C 714.167,323.667 712.833,324.333 711.5,325C 714.319,329.247 712.986,331.58 707.5,332C 706.167,333 706.167,334 707.5,335C 705.33,336.586 702.996,337.92 700.5,339C 701.167,339.667 701.833,340.333 702.5,341C 700.453,342.073 698.453,343.239 696.5,344.5C 697.167,345.167 697.833,345.833 698.5,346.5C 695.914,347.48 693.247,347.813 690.5,347.5C 690.5,349.167 690.5,350.833 690.5,352.5C 688.304,352.565 686.304,353.232 684.5,354.5C 684.833,355.167 685.167,355.833 685.5,356.5C 683.577,357.308 681.577,357.808 679.5,358C 679.833,358.333 680.167,358.667 680.5,359C 676.745,360.588 673.745,363.088 671.5,366.5C 668.404,364.579 665.07,363.246 661.5,362.5C 663.449,357.367 664.449,352.034 664.5,346.5C 667.635,346.452 669.302,344.785 669.5,341.5C 670.167,341.833 670.833,342.167 671.5,342.5C 672.474,340.257 672.808,337.924 672.5,335.5C 673.833,335.5 675.167,335.5 676.5,335.5C 676.5,333.833 676.5,332.167 676.5,330.5C 677.833,330.5 679.167,330.5 680.5,330.5C 680.336,327.813 680.503,325.146 681,322.5C 681.689,323.357 682.522,324.023 683.5,324.5C 684.575,322.098 685.742,319.764 687,317.5C 687.689,318.357 688.522,319.023 689.5,319.5C 690.5,316.167 691.5,312.833 692.5,309.5C 693.167,310.167 693.833,310.833 694.5,311.5C 695.762,308.885 696.928,306.218 698,303.5C 698.419,304.672 699.085,305.672 700,306.5C 701.711,304.044 703.044,301.377 704,298.5C 704.419,299.672 705.085,300.672 706,301.5C 707.667,299.167 709.333,296.833 711,294.5C 711.317,296.301 711.984,296.634 713,295.5C 714.333,293.5 715.667,291.5 717,289.5C 717.333,290.5 717.667,291.5 718,292.5C 719.093,290.651 720.426,288.984 722,287.5C 722.667,288.167 723.333,288.833 724,289.5C 729.028,285.301 733.861,280.968 738.5,276.5 Z"/></g>
<g><path style="opacity:1" fill="#036605" d="M 573.5,266.5 C 580.818,273.674 587.984,280.341 595,286.5C 595.333,285.833 595.667,285.167 596,284.5C 597.29,286.792 598.957,288.792 601,290.5C 601.333,289.833 601.667,289.167 602,288.5C 603.421,291.009 605.088,293.343 607,295.5C 607.333,295.167 607.667,294.833 608,294.5C 608.681,296.895 609.515,299.228 610.5,301.5C 611.478,301.023 612.311,300.357 613,299.5C 614,302.5 615,305.5 616,308.5C 616.667,307.833 617.333,307.167 618,306.5C 618.333,308.5 618.667,310.5 619,312.5C 619.333,312.167 619.667,311.833 620,311.5C 620.284,313.886 621.284,314.552 623,313.5C 623.667,316.167 624.333,318.833 625,321.5C 626.156,320.007 626.99,320.174 627.5,322C 628.127,324.135 628.627,326.302 629,328.5C 629.414,328.043 629.914,327.709 630.5,327.5C 631.934,329.22 632.767,331.22 633,333.5C 633.333,333.167 633.667,332.833 634,332.5C 636.413,340.073 639.413,347.406 643,354.5C 643.494,356.134 643.66,357.801 643.5,359.5C 639.121,359.922 634.788,360.589 630.5,361.5C 628.45,360.923 627.45,359.59 627.5,357.5C 626.5,357.5 625.5,357.5 624.5,357.5C 623.923,354.355 621.923,352.855 618.5,353C 620.125,352.147 620.458,351.147 619.5,350C 617.5,349 615.5,348 613.5,347C 614.167,346.333 614.833,345.667 615.5,345C 613.167,344 610.833,343 608.5,342C 609.328,341.085 610.328,340.419 611.5,340C 609.004,338.92 606.67,337.586 604.5,336C 605.672,335.581 606.672,334.915 607.5,334C 604.833,332.333 602.167,330.667 599.5,329C 600.956,328.577 601.456,327.744 601,326.5C 598.417,325.126 595.917,323.626 593.5,322C 594.672,321.581 595.672,320.915 596.5,320C 594.5,318.667 592.5,317.333 590.5,316C 591.672,315.581 592.672,314.915 593.5,314C 591.269,312.39 589.269,310.557 587.5,308.5C 588.376,307.749 589.376,307.249 590.5,307C 588.5,305 586.5,303 584.5,301C 585.5,300.667 586.5,300.333 587.5,300C 586,298.5 584.5,297 583,295.5C 582.508,294.451 582.674,293.451 583.5,292.5C 582.5,291.167 581.5,289.833 580.5,288.5C 581.325,287.614 582.325,287.281 583.5,287.5C 580.445,280.39 577.112,273.39 573.5,266.5 Z"/></g>
<g><path style="opacity:1" fill="#036605" d="M 657.5,226.5 C 659.375,231.89 660.375,237.556 660.5,243.5C 661.5,243.5 662.5,243.5 663.5,243.5C 663.481,245.06 663.148,246.56 662.5,248C 665.32,253.933 665.986,260.099 664.5,266.5C 665.833,266.5 667.167,266.5 668.5,266.5C 668.11,269.466 668.777,272.132 670.5,274.5C 669.305,276.751 668.305,279.085 667.5,281.5C 668.616,281.402 669.616,281.902 670.5,283C 669.833,285.333 669.167,287.667 668.5,290C 669.022,290.95 669.689,291.784 670.5,292.5C 668.189,295.955 668.189,299.288 670.5,302.5C 669.294,305.079 667.961,307.579 666.5,310C 667.938,310.219 669.271,310.719 670.5,311.5C 669.248,313.001 668.248,314.668 667.5,316.5C 668.376,317.251 669.376,317.751 670.5,318C 667.794,320.371 665.461,323.037 663.5,326C 664.938,326.219 666.271,326.719 667.5,327.5C 666.079,330.009 664.412,332.343 662.5,334.5C 663.5,335.167 664.5,335.833 665.5,336.5C 664.248,338.001 663.248,339.668 662.5,341.5C 663.167,342.167 663.833,342.833 664.5,343.5C 663.352,345.149 662.019,346.649 660.5,348C 661.167,348.333 661.833,348.667 662.5,349C 659.566,352.36 657.899,356.194 657.5,360.5C 653.738,360.373 650.072,359.706 646.5,358.5C 645.497,354.492 644.497,350.492 643.5,346.5C 644.552,346.649 645.552,346.483 646.5,346C 644.833,344.333 643.167,342.667 641.5,341C 643.421,339.297 643.421,337.297 641.5,335C 641.905,334.055 642.572,333.388 643.5,333C 642.167,330.667 640.833,328.333 639.5,326C 640.91,325.632 641.91,324.799 642.5,323.5C 641.627,321.587 640.627,319.753 639.5,318C 640.448,317.517 641.448,317.351 642.5,317.5C 642.202,314.735 641.202,312.235 639.5,310C 640.833,309.667 642.167,309.333 643.5,309C 642.038,305.906 640.704,302.739 639.5,299.5C 641.117,299.331 642.784,298.997 644.5,298.5C 643.222,296.278 642.222,293.944 641.5,291.5C 641.919,290.328 642.585,289.328 643.5,288.5C 642.253,286.677 641.586,284.677 641.5,282.5C 642.978,282.762 644.311,282.429 645.5,281.5C 644.833,279.167 644.167,276.833 643.5,274.5C 644.325,273.614 645.325,273.281 646.5,273.5C 646.5,270.167 646.5,266.833 646.5,263.5C 647.552,263.649 648.552,263.483 649.5,263C 648.183,260.562 647.349,258.062 647,255.5C 648.085,256.293 649.252,256.96 650.5,257.5C 653.438,248.019 655.771,237.686 657.5,226.5 Z"/></g>
<g><path style="opacity:1" fill="#f4f5f4" d="M 368.5,73.5 C 368.833,74.5 369.5,75.1667 370.5,75.5C 373.296,78.7974 376.296,81.9641 379.5,85C 377.351,86.1638 375.185,87.3305 373,88.5C 371.5,87 370,85.5 368.5,84C 363.687,84.4889 359.021,85.8222 354.5,88C 353.726,90.405 353.226,92.905 353,95.5C 351.088,96.6919 349.088,97.6919 347,98.5C 346.667,93.8262 346.833,89.1595 347.5,84.5C 347.5,83.5 347.5,82.5 347.5,81.5C 347.298,76.2957 347.631,71.129 348.5,66C 350.054,62.5561 352.721,61.2228 356.5,62C 360.369,66.037 364.369,69.8704 368.5,73.5 Z"/></g>
<g><path style="opacity:1" fill="#0c620c" d="M 360.5,76.5 C 361.289,76.7828 361.956,77.2828 362.5,78C 360.421,79.6398 358.088,80.8064 355.5,81.5C 354.571,80.3112 354.238,78.9778 354.5,77.5C 356.5,77.1667 358.5,76.8333 360.5,76.5 Z"/></g>
<g><path style="opacity:1" fill="#010401" d="M 360.5,76.5 C 358.5,76.8333 356.5,77.1667 354.5,77.5C 354.337,75.1432 354.503,72.8098 355,70.5C 357.04,72.3702 358.873,74.3702 360.5,76.5 Z"/></g>
<g><path style="opacity:1" fill="#125c11" d="M 411.5,59.5 C 412.234,60.7079 412.567,62.0413 412.5,63.5C 411.167,63.5 409.833,63.5 408.5,63.5C 408.5,62.5 408.5,61.5 408.5,60.5C 409.391,59.8902 410.391,59.5569 411.5,59.5 Z"/></g>
<g><path style="opacity:1" fill="#f7f8f7" d="M 716.5,79.5 C 715.89,80.391 715.557,81.391 715.5,82.5C 709.48,89.336 702.147,91.1693 693.5,88C 686.415,84.3315 683.081,78.4982 683.5,70.5C 683.5,69.5 683.5,68.5 683.5,67.5C 685.979,62.8566 689.645,59.3566 694.5,57C 711.597,55.2614 718.931,62.7614 716.5,79.5 Z"/></g>
<g><path style="opacity:1" fill="#09610a" d="M 691.5,69.5 C 697.297,72.0632 703.297,74.0632 709.5,75.5C 709.771,77.3797 709.104,78.713 707.5,79.5C 701.985,76.9898 696.319,74.6564 690.5,72.5C 690.557,71.391 690.89,70.391 691.5,69.5 Z"/></g>
<g><path style="opacity:1" fill="#020502" d="M 690.5,72.5 C 696.319,74.6564 701.985,76.9898 707.5,79.5C 706.942,80.7899 705.942,81.6232 704.5,82C 696.193,84.0223 691.526,80.8556 690.5,72.5 Z"/></g>
<g><path style="opacity:1" fill="#060706" d="M 709.5,75.5 C 703.297,74.0632 697.297,72.0632 691.5,69.5C 696.39,61.1573 702.223,60.4906 709,67.5C 710.636,70.2268 710.802,72.8934 709.5,75.5 Z"/></g>
<g><path style="opacity:1" fill="#10610f" d="M 638.5,55.5 C 640.903,55.448 643.236,55.7814 645.5,56.5C 647.54,58.177 649.54,59.8437 651.5,61.5C 646.327,60.4055 641.327,59.0722 636.5,57.5C 636.833,56.5 637.5,55.8333 638.5,55.5 Z"/></g>
<g><path style="opacity:1" fill="#196518" d="M 450.5,50.5 C 451.434,51.5676 451.768,52.901 451.5,54.5C 449.435,54.5172 447.435,54.8505 445.5,55.5C 445.5,54.1667 445.5,52.8333 445.5,51.5C 447.415,51.7845 449.081,51.4511 450.5,50.5 Z"/></g>
<g><path style="opacity:1" fill="#0d630e" d="M 604.5,49.5 C 607.167,49.5 609.833,49.5 612.5,49.5C 612.768,51.099 612.434,52.4324 611.5,53.5C 608.67,53.0372 606.003,52.3705 603.5,51.5C 603.328,50.5084 603.662,49.8417 604.5,49.5 Z"/></g>
<g><path style="opacity:1" fill="#f9f9f8" d="M 408.5,60.5 C 408.5,61.5 408.5,62.5 408.5,63.5C 408.728,69.5441 406.395,74.3774 401.5,78C 395.027,80.7844 388.361,82.9511 381.5,84.5C 380.697,80.7612 379.697,77.0946 378.5,73.5C 378.167,72.1667 377.833,70.8333 377.5,69.5C 376.137,64.5771 374.47,59.7438 372.5,55C 376.046,53.4833 379.712,52.15 383.5,51C 395.033,46.4516 403.366,49.6183 408.5,60.5 Z"/></g>
<g><path style="opacity:1" fill="#080b08" d="M 401.5,66.5 C 399.348,72.4353 395.015,75.7686 388.5,76.5C 386.749,74.9363 385.749,72.9363 385.5,70.5C 390.683,68.5497 396.017,67.2163 401.5,66.5 Z"/></g>
<g><path style="opacity:1" fill="#0e640e" d="M 400.5,62.5 C 401.234,63.7079 401.567,65.0413 401.5,66.5C 396.017,67.2163 390.683,68.5497 385.5,70.5C 385.443,69.391 385.11,68.391 384.5,67.5C 389.817,65.8364 395.15,64.1698 400.5,62.5 Z"/></g>
<g><path style="opacity:1" fill="#070707" d="M 400.5,62.5 C 395.15,64.1698 389.817,65.8364 384.5,67.5C 383.705,64.4496 382.705,61.4496 381.5,58.5C 385.601,56.2958 389.934,55.4624 394.5,56C 397.749,57.08 399.749,59.2467 400.5,62.5 Z"/></g>
<g><path style="opacity:1" fill="#0a620b" d="M 479.5,46.5 C 482.5,46.5 485.5,46.5 488.5,46.5C 488.443,47.609 488.11,48.609 487.5,49.5C 484.794,49.5751 482.127,49.9084 479.5,50.5C 479.5,49.1667 479.5,47.8333 479.5,46.5 Z"/></g>
<g><path style="opacity:1" fill="#10650e" d="M 567.5,45.5 C 572.527,45.5029 577.527,45.8363 582.5,46.5C 582.737,47.791 582.404,48.791 581.5,49.5C 576.848,49.0019 572.181,48.6686 567.5,48.5C 567.5,47.5 567.5,46.5 567.5,45.5 Z"/></g>
<g><path style="opacity:1" fill="#056606" d="M 547.5,44.5 C 551.833,44.5 556.167,44.5 560.5,44.5C 560.5,45.5 560.5,46.5 560.5,47.5C 555.5,47.5 550.5,47.5 545.5,47.5C 545.932,46.2905 546.599,45.2905 547.5,44.5 Z"/></g>
<g><path style="opacity:1" fill="#056607" d="M 510.5,44.5 C 513.833,44.5 517.167,44.5 520.5,44.5C 520.5,45.5 520.5,46.5 520.5,47.5C 517.833,47.5 515.167,47.5 512.5,47.5C 511.599,46.7095 510.932,45.7095 510.5,44.5 Z"/></g>
<g><path style="opacity:1" fill="#f4f4f4" d="M 665.5,61.5 C 666.167,62.8333 666.833,64.1667 667.5,65.5C 667.116,68.7693 665.782,71.6026 663.5,74C 655.982,76.5895 648.982,75.5895 642.5,71C 639.8,68.0544 640.3,65.5544 644,63.5C 647.795,68.0979 652.628,69.9312 658.5,69C 659.517,67.9505 659.684,66.7839 659,65.5C 656.843,63.505 654.343,62.1717 651.5,61.5C 649.54,59.8437 647.54,58.177 645.5,56.5C 643.935,52.0241 644.935,48.1908 648.5,45C 656.519,41.8304 663.852,43.1637 670.5,49C 669.743,50.5122 668.743,51.8455 667.5,53C 664.266,51.4889 660.766,50.3222 657,49.5C 652.289,49.6403 651.455,51.4736 654.5,55C 658.524,56.6743 662.191,58.841 665.5,61.5 Z"/></g>
<g><path style="opacity:1" fill="#f8f8f7" d="M 445.5,51.5 C 445.5,52.8333 445.5,54.1667 445.5,55.5C 445.429,61.1403 443.096,65.6403 438.5,69C 441.77,70.9416 444.77,70.4416 447.5,67.5C 448.833,68.1667 449.833,69.1667 450.5,70.5C 444.09,77.8737 437.09,78.3737 429.5,72C 422.139,72.3197 416.472,69.4864 412.5,63.5C 412.567,62.0413 412.234,60.7079 411.5,59.5C 410.365,50.2685 414.032,43.7685 422.5,40C 433.818,36.9918 441.485,40.8251 445.5,51.5 Z"/></g>
<g><path style="opacity:1" fill="#070907" d="M 437.5,58.5 C 434.03,65.8165 428.697,67.3165 421.5,63C 420.748,62.3292 420.414,61.4959 420.5,60.5C 425.305,59.4388 430.139,58.4388 435,57.5C 436.07,57.528 436.903,57.8614 437.5,58.5 Z"/></g>
<g><path style="opacity:1" fill="#0f630e" d="M 437.5,53.5 C 438.833,55.1667 438.833,56.8333 437.5,58.5C 436.903,57.8614 436.07,57.528 435,57.5C 430.139,58.4388 425.305,59.4388 420.5,60.5C 419.599,59.7095 418.932,58.7095 418.5,57.5C 424.838,56.1659 431.171,54.8325 437.5,53.5 Z"/></g>
<g><path style="opacity:1" fill="#050605" d="M 437.5,53.5 C 431.171,54.8325 424.838,56.1659 418.5,57.5C 418.145,52.0232 420.478,48.1899 425.5,46C 431.994,44.7376 435.994,47.2376 437.5,53.5 Z"/></g>
<g><path style="opacity:1" fill="#f8f9f8" d="M 638.5,55.5 C 637.5,55.8333 636.833,56.5 636.5,57.5C 635.027,58.072 633.693,58.9054 632.5,60C 633.895,63.4572 635.562,66.7905 637.5,70C 634.527,70.383 631.694,69.883 629,68.5C 628.108,65.7163 626.942,63.0496 625.5,60.5C 623.392,59.0562 621.059,58.3896 618.5,58.5C 617.908,61.1272 617.575,63.7938 617.5,66.5C 614.729,66.5793 612.063,66.0793 609.5,65C 610.648,61.2813 611.314,57.448 611.5,53.5C 612.434,52.4324 612.768,51.099 612.5,49.5C 613.622,44.5552 614.622,39.5552 615.5,34.5C 622.33,35.2992 628.997,36.7992 635.5,39C 640.858,43.6979 641.858,49.1979 638.5,55.5 Z"/></g>
<g><path style="opacity:1" fill="#0b100a" d="M 621.5,41.5 C 625.548,41.8401 629.215,43.1735 632.5,45.5C 633.795,48.4394 633.128,50.9394 630.5,53C 626.663,53.7613 622.996,53.2613 619.5,51.5C 620.551,48.243 621.218,44.9097 621.5,41.5 Z"/></g>
<g><path style="opacity:1" fill="#f8f8f8" d="M 479.5,46.5 C 479.5,47.8333 479.5,49.1667 479.5,50.5C 479.508,60.6567 474.342,65.6567 464,65.5C 457.174,64.8401 453.007,61.1734 451.5,54.5C 451.768,52.901 451.434,51.5676 450.5,50.5C 450.435,45.5463 449.768,40.713 448.5,36C 450.937,34.6253 453.603,34.1253 456.5,34.5C 456.795,39.5636 457.462,44.5636 458.5,49.5C 458.5,50.5 458.5,51.5 458.5,52.5C 459.995,58.1923 463.662,60.0256 469.5,58C 471.451,56.2658 472.451,54.0991 472.5,51.5C 472.768,49.901 472.434,48.5676 471.5,47.5C 471.435,42.5463 470.768,37.713 469.5,33C 471.937,31.6253 474.603,31.1253 477.5,31.5C 477.795,36.5636 478.462,41.5636 479.5,46.5 Z"/></g>
<g><path style="opacity:1" fill="#060906" d="M 472.5,51.5 C 472.451,54.0991 471.451,56.2658 469.5,58C 463.662,60.0256 459.995,58.1923 458.5,52.5C 463.167,52.1667 467.833,51.8333 472.5,51.5 Z"/></g>
<g><path style="opacity:1" fill="#0c630d" d="M 471.5,47.5 C 472.434,48.5676 472.768,49.901 472.5,51.5C 467.833,51.8333 463.167,52.1667 458.5,52.5C 458.5,51.5 458.5,50.5 458.5,49.5C 463.028,49.2296 467.361,48.5629 471.5,47.5 Z"/></g>
<g><path style="opacity:1" fill="#f7f8f7" d="M 604.5,49.5 C 603.662,49.8417 603.328,50.5084 603.5,51.5C 598.871,50.519 594.204,50.3523 589.5,51C 588.594,52.6995 588.261,54.5328 588.5,56.5C 594.116,57.5402 599.783,58.2069 605.5,58.5C 606.134,61.916 604.8,63.916 601.5,64.5C 595.178,63.5847 588.845,62.7514 582.5,62C 581.422,61.3261 580.755,60.3261 580.5,59C 581.256,55.8752 581.589,52.7086 581.5,49.5C 582.404,48.791 582.737,47.791 582.5,46.5C 582.671,41.804 583.171,37.1373 584,32.5C 584.674,31.4216 585.674,30.7549 587,30.5C 593.128,31.6135 599.295,32.4468 605.5,33C 607.604,34.8356 607.938,37.0023 606.5,39.5C 601.24,38.3425 595.907,37.6759 590.5,37.5C 590.244,39.7925 590.577,41.9592 591.5,44C 595.813,44.7354 600.147,45.2354 604.5,45.5C 604.5,46.8333 604.5,48.1667 604.5,49.5 Z"/></g>
<g><path style="opacity:1" fill="#fafbfa" d="M 510.5,44.5 C 510.932,45.7095 511.599,46.7095 512.5,47.5C 513.837,51.6733 515.837,55.5066 518.5,59C 513.038,60.8922 509.371,59.2255 507.5,54C 502.512,53.9134 497.512,54.0801 492.5,54.5C 492.672,61.1964 489.672,63.1964 483.5,60.5C 484.84,56.8098 486.174,53.1431 487.5,49.5C 488.11,48.609 488.443,47.609 488.5,46.5C 490.688,41.2728 492.688,35.9394 494.5,30.5C 497.372,29.2175 500.205,29.2175 503,30.5C 505.258,35.3526 507.758,40.0193 510.5,44.5 Z"/></g>
<g><path style="opacity:1" fill="#136614" d="M 496.5,45.5 C 498.833,45.5 501.167,45.5 503.5,45.5C 503.804,46.1499 504.137,46.8165 504.5,47.5C 501.572,48.4841 498.572,48.8174 495.5,48.5C 495.263,47.209 495.596,46.209 496.5,45.5 Z"/></g>
<g><path style="opacity:1" fill="#0e110e" d="M 503.5,45.5 C 501.167,45.5 498.833,45.5 496.5,45.5C 497.022,42.4318 497.855,39.4318 499,36.5C 500.513,39.5266 502.013,42.5266 503.5,45.5 Z"/></g>
<g><path style="opacity:1" fill="#f7f7f7" d="M 567.5,45.5 C 567.5,46.5 567.5,47.5 567.5,48.5C 567.5,52.5 567.5,56.5 567.5,60.5C 564.833,60.5 562.167,60.5 559.5,60.5C 559.231,56.0685 559.564,51.7352 560.5,47.5C 560.5,46.5 560.5,45.5 560.5,44.5C 560.5,41.1667 560.5,37.8333 560.5,34.5C 557.5,34.5 554.5,34.5 551.5,34.5C 551.5,32.5 551.5,30.5 551.5,28.5C 560.502,28.7859 569.502,29.1192 578.5,29.5C 578.5,31.5 578.5,33.5 578.5,35.5C 575.167,35.5 571.833,35.5 568.5,35.5C 568.658,38.9023 568.324,42.2356 567.5,45.5 Z"/></g>
<g><path style="opacity:1" fill="#f9faf9" d="M 547.5,44.5 C 546.599,45.2905 545.932,46.2905 545.5,47.5C 544.13,47.8565 543.13,48.6898 542.5,50C 544.494,52.9832 546.494,55.9832 548.5,59C 545.833,59.6667 543.167,59.6667 540.5,59C 538.5,56.3333 536.5,53.6667 534.5,51C 532.527,50.5045 530.527,50.3379 528.5,50.5C 528.5,53.5 528.5,56.5 528.5,59.5C 525.833,59.5 523.167,59.5 520.5,59.5C 520.5,55.5 520.5,51.5 520.5,47.5C 520.5,46.5 520.5,45.5 520.5,44.5C 520.5,39.1667 520.5,33.8333 520.5,28.5C 527.175,28.3337 533.842,28.5004 540.5,29C 543.583,29.786 545.749,31.6193 547,34.5C 547.498,37.8168 547.665,41.1501 547.5,44.5 Z"/></g>
<g><path style="opacity:1" fill="#395638" d="M 528.5,34.5 C 528.5,37.5 528.5,40.5 528.5,43.5C 531.833,43.5 535.167,43.5 538.5,43.5C 528.246,48.2463 524.912,45.2463 528.5,34.5 Z"/></g>
<g><path style="opacity:1" fill="#010101" d="M 528.5,34.5 C 531.909,34.2493 535.242,34.5827 538.5,35.5C 541.134,38.2455 541.134,40.9122 538.5,43.5C 535.167,43.5 531.833,43.5 528.5,43.5C 528.5,40.5 528.5,37.5 528.5,34.5 Z"/></g>
<g><path style="opacity:0.219" fill="#000300" d="M 327.5,60.5 C 292.127,76.6804 258.794,96.1804 227.5,119C 119.386,201.576 52.5526,310.076 27,444.5C 5.18004,582.433 33.0134,709.1 110.5,824.5C 112.541,826.903 113.708,829.57 114,832.5C 103.559,840.307 93.3925,848.473 83.5,857C 176.201,980.714 299.201,1054.88 452.5,1079.5C 444.5,1079.5 436.5,1079.5 428.5,1079.5C 426.444,1078.78 424.277,1078.12 422,1077.5C 421.283,1078.04 420.783,1078.71 420.5,1079.5C 419.167,1079.5 417.833,1079.5 416.5,1079.5C 416.082,1078.78 415.416,1078.28 414.5,1078C 415.167,1077.67 415.833,1077.33 416.5,1077C 415.207,1076.51 413.873,1076.34 412.5,1076.5C 410.316,1075.73 407.982,1075.07 405.5,1074.5C 404.914,1074.71 404.414,1075.04 404,1075.5C 397.647,1073.35 391.313,1071.01 385,1068.5C 384,1069.17 383,1069.83 382,1070.5C 380.155,1069.24 378.155,1068.24 376,1067.5C 375.127,1067.74 374.293,1068.07 373.5,1068.5C 372.289,1067.73 372.289,1066.89 373.5,1066C 372.552,1065.52 371.552,1065.35 370.5,1065.5C 368.54,1063.79 366.373,1063.46 364,1064.5C 359.599,1063.31 355.433,1061.65 351.5,1059.5C 349.396,1058.09 347.063,1057.09 344.5,1056.5C 342.679,1055.88 340.679,1055.72 338.5,1056C 335.425,1053.43 332.092,1052.1 328.5,1052C 329.833,1051.33 329.833,1050.67 328.5,1050C 327.216,1049.32 326.049,1049.48 325,1050.5C 323.491,1048.08 321.325,1047.08 318.5,1047.5C 318.167,1046.17 317.833,1046.17 317.5,1047.5C 315.952,1047.18 315.285,1046.18 315.5,1044.5C 314.178,1044.33 313.011,1044.66 312,1045.5C 311.626,1044.58 311.126,1043.75 310.5,1043C 307.312,1042.55 304.645,1041.22 302.5,1039C 297.77,1038.29 293.603,1036.45 290,1033.5C 288.951,1034.52 287.784,1034.68 286.5,1034C 287.167,1033.67 287.833,1033.33 288.5,1033C 282.689,1030.27 277.356,1027.44 272.5,1024.5C 270.877,1025.48 269.543,1024.98 268.5,1023C 267.167,1022.67 265.833,1022.33 264.5,1022C 264.833,1021.67 265.167,1021.33 265.5,1021C 264.167,1020 262.833,1019 261.5,1018C 258.542,1017.77 256.042,1016.6 254,1014.5C 253.586,1014.96 253.086,1015.29 252.5,1015.5C 251.289,1014.73 251.289,1013.89 252.5,1013C 248.528,1011.68 244.861,1009.85 241.5,1007.5C 240.232,1005.95 238.565,1004.95 236.5,1004.5C 233.312,1002.31 230.145,999.976 227,997.5C 226.667,997.833 226.333,998.167 226,998.5C 221.46,995.182 217.127,991.516 213,987.5C 212.667,987.833 212.333,988.167 212,988.5C 209.444,986.285 206.611,984.451 203.5,983C 204.833,982.333 204.833,981.667 203.5,981C 192.645,974.233 182.812,966.733 174,958.5C 173.667,958.833 173.333,959.167 173,959.5C 172.119,956.115 169.952,954.448 166.5,954.5C 165.432,951.103 163.099,949.103 159.5,948.5C 159.649,947.448 159.483,946.448 159,945.5C 158.333,944.167 157.667,944.167 157,945.5C 148.946,936.155 140.613,927.822 132,920.5C 131.5,918.667 130.333,917.5 128.5,917C 128.833,916.667 129.167,916.333 129.5,916C 122.569,910.158 116.402,903.658 111,896.5C 109.786,894.951 108.286,893.785 106.5,893C 106.833,892.667 107.167,892.333 107.5,892C 105.998,891.417 104.665,890.584 103.5,889.5C 103.709,888.914 104.043,888.414 104.5,888C 101.689,886.356 99.356,884.19 97.5,881.5C 92.8064,874.096 87.6398,867.096 82,860.5C 81.3333,859.167 81.3333,857.833 82,856.5C 84.0036,853.156 86.3369,850.823 89,849.5C 94.3463,844.416 99.6797,840.083 105,836.5C 105.667,834.5 105.667,832.5 105,830.5C 94.6686,808.174 83.002,786.507 70,765.5C 67.7919,758.822 64.9585,752.488 61.5,746.5C 55.0089,732.191 49.0089,717.691 43.5,703C 43.8333,702.667 44.1667,702.333 44.5,702C 43.4844,701.481 42.8178,700.647 42.5,699.5C 41.2247,692.594 39.3914,685.927 37,679.5C 36.3551,678.354 35.5217,677.354 34.5,676.5C 35.5443,674.232 35.711,671.899 35,669.5C 32.042,666.754 30.8754,663.588 31.5,660C 26.1477,640.25 22.3143,620.083 20,599.5C 19.3076,598.975 18.8076,598.308 18.5,597.5C 17.2463,592.015 17.2463,586.349 18.5,580.5C 18.3333,579.167 18.1667,577.833 18,576.5C 17.6667,578.5 17.3333,580.5 17,582.5C 16.6667,573.833 16.3333,565.167 16,556.5C 15.2652,554.129 14.4318,551.795 13.5,549.5C 14.7542,546.024 15.4209,542.358 15.5,538.5C 16.1706,521.506 16.6706,504.506 17,487.5C 17.0368,483.911 17.8701,480.578 19.5,477.5C 18.0381,473.599 18.5381,469.932 21,466.5C 21.355,460.392 22.355,454.392 24,448.5C 24.6626,445.131 24.4959,441.797 23.5,438.5C 26.5373,431.768 28.204,424.934 28.5,418C 30.5268,416.604 30.8602,414.938 29.5,413C 30.7941,407.666 32.6275,402.499 35,397.5C 35.6869,395.432 35.5202,393.432 34.5,391.5C 35.7185,391.891 36.5518,391.224 37,389.5C 44.4254,364.992 52.9254,341.659 62.5,319.5C 88.6847,262.802 124.018,211.968 168.5,167C 169.448,166.517 170.448,166.351 171.5,166.5C 171.351,165.448 171.517,164.448 172,163.5C 176.614,159.097 181.114,154.597 185.5,150C 189.139,148.015 192.473,145.682 195.5,143C 196.5,141.333 197.5,139.667 198.5,138C 200.061,137.682 201.228,136.849 202,135.5C 202.333,135.833 202.667,136.167 203,136.5C 204.32,133.006 206.82,130.839 210.5,130C 216.142,125.173 221.809,120.34 227.5,115.5C 228.086,115.709 228.586,116.043 229,116.5C 233.437,110.399 239.27,106.233 246.5,104C 248.125,103.147 248.458,102.147 247.5,101C 251.434,98.5361 255.434,96.3694 259.5,94.5C 262.8,92.6964 265.634,90.3631 268,87.5C 268.414,87.9574 268.914,88.2907 269.5,88.5C 274.973,83.3208 281.306,79.9875 288.5,78.5C 288.354,76.0576 289.187,75.3909 291,76.5C 292.316,73.9532 294.149,73.2865 296.5,74.5C 297.386,73.675 297.719,72.675 297.5,71.5C 299.199,71.6602 300.866,71.4935 302.5,71C 302.167,70.6667 301.833,70.3333 301.5,70C 302.76,68.887 303.927,68.7203 305,69.5C 311.281,65.427 317.615,62.0937 324,59.5C 325.011,60.3366 326.178,60.67 327.5,60.5 Z"/></g>
<g><path style="opacity:1" fill="#020a01" d="M 473.5,402.5 C 474.043,402.56 474.376,402.893 474.5,403.5C 469.079,413.348 462.912,422.681 456,431.5C 459.242,420.363 465.075,410.697 473.5,402.5 Z"/></g>
<g><path style="opacity:1" fill="#000000" d="M 609.5,408.5 C 618.067,407.291 624.567,410.291 629,417.5C 638.552,436.591 640.886,456.591 636,477.5C 626.644,517.208 610.977,554.208 589,588.5C 543.864,558.993 514.197,570.326 500,622.5C 492.927,592.81 495.26,563.81 507,535.5C 523.424,497.772 545.424,463.772 573,433.5C 583.305,422.279 595.471,413.945 609.5,408.5 Z"/></g>
<g><path style="opacity:1" fill="#066108" d="M 872.5,178.5 C 960.088,264.247 1009.92,368.581 1022,491.5C 1030.55,605.802 1003.22,710.469 940,805.5C 939.53,806.577 939.697,807.577 940.5,808.5C 938.839,807.203 937.172,805.87 935.5,804.5C 937.074,804.063 938.241,803.063 939,801.5C 986.377,730.038 1013.04,651.371 1019,565.5C 1026.33,413.909 976.161,285.243 868.5,179.5C 869.959,179.567 871.292,179.234 872.5,178.5 Z"/></g>
<g><path style="opacity:1" fill="#020b01" d="M 273.5,605.5 C 274.043,605.56 274.376,605.893 274.5,606.5C 272.125,613.28 268.292,618.946 263,623.5C 265.346,616.949 268.846,610.949 273.5,605.5 Z"/></g>
<g><path style="opacity:1" fill="#000100" d="M 551.5,609.5 C 558.157,608.965 564.49,610.132 570.5,613C 563.219,622.947 555.219,632.281 546.5,641C 540.953,643.789 535.287,644.122 529.5,642C 527.607,639.083 527.107,635.916 528,632.5C 532.475,621.19 540.308,613.523 551.5,609.5 Z"/></g>
<g><path style="opacity:1" fill="#000200" d="M 703.5,681.5 C 704.376,681.369 705.043,681.702 705.5,682.5C 697.091,710.329 683.257,734.996 664,756.5C 657.667,762.833 651.333,769.167 645,775.5C 644.274,770.761 644.607,766.095 646,761.5C 654.909,740.627 666.242,721.294 680,703.5C 687.389,695.58 695.222,688.247 703.5,681.5 Z"/></g>
<g><path style="opacity:0.004" fill="#000000" d="M 61.5,746.5 C 61.631,747.239 61.4643,747.906 61,748.5C 60.3083,747.563 60.475,746.897 61.5,746.5 Z"/></g>
<g><path style="opacity:1" fill="#036705" d="M 916.5,789.5 C 917.568,790.434 918.901,790.768 920.5,790.5C 920.859,792.371 921.859,793.871 923.5,795C 927.751,797.945 931.751,801.112 935.5,804.5C 937.172,805.87 938.839,807.203 940.5,808.5C 945.879,812.945 951.379,817.279 957,821.5C 958.363,819.316 959.863,817.316 961.5,815.5C 962.404,816.209 962.737,817.209 962.5,818.5C 961.178,820.311 960.678,822.311 961,824.5C 968.818,831.074 976.818,837.407 985,843.5C 985.315,844.908 984.982,846.241 984,847.5C 890.873,976.521 765.373,1053.85 607.5,1079.5C 555.833,1079.5 504.167,1079.5 452.5,1079.5C 299.201,1054.88 176.201,980.714 83.5,857C 93.3925,848.473 103.559,840.307 114,832.5C 113.708,829.57 112.541,826.903 110.5,824.5C 111.632,823.646 112.965,823.646 114.5,824.5C 115.657,826.138 116.824,827.804 118,829.5C 123.088,824.571 128.588,820.238 134.5,816.5C 136.048,816.179 136.715,815.179 136.5,813.5C 137.791,813.737 138.791,813.404 139.5,812.5C 144.429,808.352 149.429,804.185 154.5,800C 153.748,799.329 153.414,798.496 153.5,797.5C 153.842,796.662 154.508,796.328 155.5,796.5C 156.423,797.303 157.423,797.47 158.5,797C 170.091,787.954 181.591,778.787 193,769.5C 201.85,781.862 211.183,793.862 221,805.5C 303.468,896.083 406.301,942.416 529.5,944.5C 677.248,940.477 792.915,878.144 876.5,757.5C 890.165,767.841 903.499,778.507 916.5,789.5 Z"/></g>
<g><path style="opacity:1" fill="#fbfdfb" d="M 193.5,795.5 C 199.242,799.735 204.575,804.568 209.5,810C 199.767,819.733 190.1,829.4 180.5,839C 188.123,847.625 196.123,855.958 204.5,864C 205.167,864.667 205.833,864.667 206.5,864C 216,854.5 225.5,845 235,835.5C 240.015,840.348 244.848,845.348 249.5,850.5C 225.914,873.752 202.247,897.085 178.5,920.5C 173.348,915.848 168.348,911.015 163.5,906C 173.554,895.946 183.554,885.946 193.5,876C 185,867.5 176.5,859 168,850.5C 158,860.5 148,870.5 138,880.5C 132.741,875.913 128.241,870.747 124.5,865C 147.635,842.031 170.635,818.865 193.5,795.5 Z"/></g>
<g><path style="opacity:1" fill="#fbfdfb" d="M 899.5,799.5 C 904.504,802.338 908.337,806.338 911,811.5C 914.879,826.692 919.212,841.692 924,856.5C 930.011,849.657 936.178,842.99 942.5,836.5C 946.397,839.609 950.064,842.943 953.5,846.5C 942.904,859.353 932.07,872.019 921,884.5C 917.527,881.939 914.527,878.939 912,875.5C 907.178,859.212 902.511,842.878 898,826.5C 892.125,832.707 886.625,839.207 881.5,846C 880.5,846.667 879.5,846.667 878.5,846C 874.933,843.055 871.6,839.889 868.5,836.5C 879.233,824.44 889.566,812.107 899.5,799.5 Z"/></g>
<g><path style="opacity:0.004" fill="#000000" d="M 984.5,839.5 C 985.833,840.167 985.833,840.167 984.5,839.5 Z"/></g>
<g><path style="opacity:1" fill="#fbfdfb" d="M 861.5,841.5 C 863.722,841.178 865.556,841.845 867,843.5C 870.021,847.544 872.521,851.877 874.5,856.5C 871.569,859.61 868.736,862.943 866,866.5C 865.262,870.261 865.595,873.928 867,877.5C 876.684,887.683 886.184,898.017 895.5,908.5C 891.482,913.352 886.982,917.685 882,921.5C 865.982,904.316 850.149,886.983 834.5,869.5C 837.581,865.249 841.414,861.916 846,859.5C 849.186,860.764 851.852,862.764 854,865.5C 852.594,858.49 853.594,851.824 857,845.5C 858.667,844.267 860.167,842.933 861.5,841.5 Z"/></g>
<g><path style="opacity:1" fill="#fcfdfc" d="M 812.5,886.5 C 829.337,885.251 841.337,892.251 848.5,907.5C 838.451,916.371 827.784,924.538 816.5,932C 824.108,940.939 832.441,941.772 841.5,934.5C 843.792,930.079 846.459,925.912 849.5,922C 853.508,922.495 857.508,923.329 861.5,924.5C 858.842,943.991 847.675,954.991 828,957.5C 808.98,953.481 796.646,942.147 791,923.5C 788.386,905.386 795.552,893.053 812.5,886.5 Z"/></g>
<g><path style="opacity:1" fill="#fcfefc" d="M 238.5,889.5 C 255.907,886.948 268.074,893.615 275,909.5C 277.285,922.309 273.785,933.142 264.5,942C 263.167,942.667 261.833,942.667 260.5,942C 251.167,935.333 241.833,928.667 232.5,922C 229.936,921.55 228.436,922.716 228,925.5C 225.013,934.539 227.846,941.039 236.5,945C 240.87,945.919 245.203,946.919 249.5,948C 250,948.5 250.5,949 251,949.5C 251.499,953.486 251.666,957.486 251.5,961.5C 231.805,964.286 217.971,956.62 210,938.5C 208.004,915.359 217.504,899.026 238.5,889.5 Z"/></g>
<g><path style="opacity:1" fill="#106a0e" d="M 814.5,901.5 C 820.608,900.722 825.274,902.889 828.5,908C 822.245,912.378 816.078,916.878 810,921.5C 804.574,913.277 806.074,906.61 814.5,901.5 Z"/></g>
<g><path style="opacity:1" fill="#fcfdfb" d="M 747.5,903.5 C 748.675,903.281 749.675,903.614 750.5,904.5C 753.254,909.008 755.754,913.674 758,918.5C 758.689,919.357 759.522,920.023 760.5,920.5C 764.909,918.547 769.076,916.213 773,913.5C 775.557,917.446 777.723,921.613 779.5,926C 775.698,929.407 771.364,932.074 766.5,934C 772.714,944.258 778.547,954.758 784,965.5C 785.062,966.899 786.395,967.899 788,968.5C 790.939,967.544 793.272,965.877 795,963.5C 799.465,965.311 803.298,967.978 806.5,971.5C 799.452,985.54 788.785,989.707 774.5,984C 772.291,982.127 770.458,979.96 769,977.5C 762.753,966.004 756.253,954.67 749.5,943.5C 747.5,944.5 745.5,945.5 743.5,946.5C 740.331,944.016 737.998,940.849 736.5,937C 739.31,934.586 741.643,931.753 743.5,928.5C 741.989,922.788 740.322,917.121 738.5,911.5C 738.529,909.971 739.196,908.804 740.5,908C 743.239,906.974 745.572,905.474 747.5,903.5 Z"/></g>
<g><path style="opacity:1" fill="#0a690a" d="M 246.5,904.5 C 259.766,906.031 263.266,912.698 257,924.5C 251.177,919.922 245.177,915.588 239,911.5C 238.493,910.004 238.993,908.837 240.5,908C 242.432,906.541 244.432,905.375 246.5,904.5 Z"/></g>
<g><path style="opacity:1" fill="#fcfdfc" d="M 295.5,919.5 C 299.962,921.231 304.295,923.231 308.5,925.5C 309.318,928.107 309.818,930.774 310,933.5C 319.942,928.902 328.275,930.902 335,939.5C 335.882,942.789 336.548,946.123 337,949.5C 349.547,942.735 360.547,944.735 370,955.5C 372.936,962.683 373.27,970.016 371,977.5C 364.295,992.408 357.462,1007.24 350.5,1022C 344.255,1020.71 338.588,1018.05 333.5,1014C 339.863,999.441 346.363,984.941 353,970.5C 354.167,962.333 350.667,958.833 342.5,960C 340.376,961.122 338.543,962.622 337,964.5C 330.642,979.083 323.808,993.416 316.5,1007.5C 311.62,1004.89 306.62,1002.56 301.5,1000.5C 301.167,999.833 300.833,999.167 300.5,998.5C 306.997,984.172 313.497,969.838 320,955.5C 321.643,950.572 320.143,947.072 315.5,945C 311.683,943.977 308.183,944.477 305,946.5C 297.893,961.046 291.06,975.713 284.5,990.5C 282.534,991.372 280.534,991.205 278.5,990C 274.34,988.088 270.34,985.921 266.5,983.5C 276.733,962.372 286.399,941.039 295.5,919.5 Z"/></g>
<g><path style="opacity:1" fill="#fcfdfc" d="M 728.5,935.5 C 730.5,935.5 732.5,935.5 734.5,935.5C 735.672,941.189 737.005,946.856 738.5,952.5C 738.167,953.167 737.833,953.833 737.5,954.5C 729.12,955.547 724.453,960.213 723.5,968.5C 728.878,982.261 734.545,995.927 740.5,1009.5C 734.6,1012.03 728.767,1014.7 723,1017.5C 713.833,995.833 704.667,974.167 695.5,952.5C 699.271,949.845 703.437,947.845 708,946.5C 708.833,946.667 709.667,946.833 710.5,947C 712.333,949.5 714.167,952 716,954.5C 716.703,945.731 720.869,939.398 728.5,935.5 Z"/></g>
<g><path style="opacity:1" fill="#fcfdfc" d="M 496.5,950.5 C 526.56,948.396 544.726,962.063 551,991.5C 552.713,1006.51 549.713,1020.51 542,1033.5C 539.167,1037.67 535.667,1041.17 531.5,1044C 537.973,1053.31 544.64,1062.47 551.5,1071.5C 544.124,1072.85 536.791,1072.68 529.5,1071C 523.623,1065.95 518.623,1060.12 514.5,1053.5C 474.513,1052.92 456.013,1032.58 459,992.5C 462.654,970.358 475.154,956.358 496.5,950.5 Z"/></g>
<g><path style="opacity:1" fill="#fcfdfc" d="M 394.5,961.5 C 398.956,962.197 403.29,963.364 407.5,965C 409.002,967.574 410.002,970.407 410.5,973.5C 419.537,967.51 428.87,967.01 438.5,972C 444.526,978.238 447.526,985.738 447.5,994.5C 447.197,1007.4 443.364,1019.06 436,1029.5C 423.618,1043.25 410.785,1043.91 397.5,1031.5C 395.024,1039.4 392.858,1047.4 391,1055.5C 390.275,1056.06 389.442,1056.39 388.5,1056.5C 383.536,1055.18 378.536,1054.01 373.5,1053C 372.978,1052.44 372.645,1051.77 372.5,1051C 379.607,1021.07 386.94,991.241 394.5,961.5 Z"/></g>
<g><path style="opacity:1" fill="#fbfdfb" d="M 661.5,960.5 C 677.004,959.504 686.837,966.504 691,981.5C 695.465,996.029 699.299,1010.7 702.5,1025.5C 698.238,1026.76 693.904,1027.26 689.5,1027C 687.641,1025.44 686.141,1023.61 685,1021.5C 678.793,1033.58 668.96,1038.41 655.5,1036C 644.42,1029.19 641.253,1019.69 646,1007.5C 652.972,998.376 662.139,992.709 673.5,990.5C 673.116,980.257 668.116,976.424 658.5,979C 655.537,980.961 652.871,983.294 650.5,986C 647.97,987.422 645.303,987.755 642.5,987C 640.167,984.667 637.833,982.333 635.5,980C 641.783,970.203 650.45,963.703 661.5,960.5 Z"/></g>
<g><path style="opacity:1" fill="#056806" d="M 499.5,969.5 C 519.687,968.452 530.02,978.119 530.5,998.5C 530.93,1011.06 526.597,1021.56 517.5,1030C 505.922,1035.71 495.422,1034.21 486,1025.5C 477.744,1010.73 477.411,995.728 485,980.5C 488.514,975.003 493.348,971.337 499.5,969.5 Z"/></g>
<g><path style="opacity:1" fill="#fcfdfc" d="M 614.5,973.5 C 616.167,973.5 617.833,973.5 619.5,973.5C 622.355,997.148 625.021,1020.81 627.5,1044.5C 622.528,1045.42 617.528,1045.59 612.5,1045C 611.406,1043.22 610.406,1041.39 609.5,1039.5C 601.054,1050.03 590.721,1052.53 578.5,1047C 572.803,1042.11 569.303,1035.94 568,1028.5C 565.837,1012.53 564.003,996.526 562.5,980.5C 567.686,980.039 572.853,979.373 578,978.5C 579.107,978.585 580.107,978.919 581,979.5C 583,994.833 585,1010.17 587,1025.5C 590.33,1034.31 595.83,1035.81 603.5,1030C 605.594,1028.74 606.594,1026.91 606.5,1024.5C 604.253,1008.19 602.253,991.855 600.5,975.5C 605.37,975.31 610.036,974.644 614.5,973.5 Z"/></g>
<g><path style="opacity:0.004" fill="#000000" d="M 862.5,978.5 C 862.833,978.5 863.167,978.5 863.5,978.5C 863.315,979.17 862.981,979.17 862.5,978.5 Z"/></g>
<g><path style="opacity:1" fill="#076808" d="M 414.5,982.5 C 423.114,981.618 427.447,985.452 427.5,994C 427.256,1004 424.256,1013 418.5,1021C 410.668,1025.25 404.668,1023.42 400.5,1015.5C 403.155,1005.88 405.655,996.215 408,986.5C 410.095,984.875 412.261,983.542 414.5,982.5 Z"/></g>
<g><path style="opacity:1" fill="#0c690b" d="M 674.5,1002.5 C 676.124,1002.36 677.29,1003.03 678,1004.5C 680.583,1016.26 675.75,1021.42 663.5,1020C 661.077,1016.62 660.91,1013.12 663,1009.5C 666.514,1006.5 670.347,1004.17 674.5,1002.5 Z"/></g>
<g><path style="opacity:0.004" fill="#000000" d="M 826.5,1003.5 C 827.833,1004.17 827.833,1004.17 826.5,1003.5 Z"/></g>
<g><path style="opacity:0.004" fill="#000000" d="M 236.5,1004.5 C 235.833,1005.17 235.833,1005.17 236.5,1004.5 Z"/></g>
<g><path style="opacity:0.004" fill="#000000" d="M 241.5,1007.5 C 240.833,1008.17 240.833,1008.17 241.5,1007.5 Z"/></g>
<g><path style="opacity:0.004" fill="#000000" d="M 782.5,1028.5 C 783.833,1029.17 783.833,1029.17 782.5,1028.5 Z"/></g>
<g><path style="opacity:0.004" fill="#000000" d="M 772.5,1033.5 C 772.5,1033.17 772.5,1032.83 772.5,1032.5C 776.5,1032.83 776.5,1033.17 772.5,1033.5 Z"/></g>
<g><path style="opacity:0.004" fill="#000000" d="M 317.5,1047.5 C 317.833,1047.5 318.167,1047.5 318.5,1047.5C 318.315,1048.17 317.981,1048.17 317.5,1047.5 Z"/></g>
<g><path style="opacity:0.004" fill="#000000" d="M 344.5,1056.5 C 343.833,1057.17 343.833,1057.17 344.5,1056.5 Z"/></g>
<g><path style="opacity:0.004" fill="#000000" d="M 717.5,1056.5 C 718.833,1057.17 718.833,1057.17 717.5,1056.5 Z"/></g>
<g><path style="opacity:0.004" fill="#000000" d="M 712.5,1058.5 C 713.833,1059.17 713.833,1059.17 712.5,1058.5 Z"/></g>
<g><path style="opacity:0.004" fill="#000000" d="M 351.5,1059.5 C 351.103,1060.53 350.437,1060.69 349.5,1060C 350.094,1059.54 350.761,1059.37 351.5,1059.5 Z"/></g>
<g><path style="opacity:0.004" fill="#000000" d="M 365.5,1064.5 C 366.833,1065.17 366.833,1065.17 365.5,1064.5 Z"/></g>
<g><path style="opacity:0.004" fill="#000000" d="M 693.5,1064.5 C 694.833,1065.17 694.833,1065.17 693.5,1064.5 Z"/></g>
<g><path style="opacity:0.004" fill="#000000" d="M 370.5,1065.5 C 369.749,1066.57 368.749,1066.74 367.5,1066C 368.448,1065.52 369.448,1065.35 370.5,1065.5 Z"/></g>
<g><path style="opacity:0.004" fill="#000000" d="M 384.5,1071.5 C 385.601,1070.4 386.934,1070.24 388.5,1071C 387.207,1071.49 385.873,1071.66 384.5,1071.5 Z"/></g>
<g><path style="opacity:0.004" fill="#000000" d="M 391.5,1072.5 C 392.833,1073.17 392.833,1073.17 391.5,1072.5 Z"/></g>
<g><path style="opacity:0.004" fill="#000000" d="M 667.5,1072.5 C 668.833,1073.17 668.833,1073.17 667.5,1072.5 Z"/></g>
<g><path style="opacity:0.004" fill="#000000" d="M 653.5,1075.5 C 653.833,1075.5 654.167,1075.5 654.5,1075.5C 654.315,1076.17 653.981,1076.17 653.5,1075.5 Z"/></g>
<g><path style="opacity:0.004" fill="#000000" d="M 412.5,1076.5 C 411.399,1077.6 410.066,1077.76 408.5,1077C 409.793,1076.51 411.127,1076.34 412.5,1076.5 Z"/></g>
<g><path style="opacity:0.004" fill="#000000" d="M 647.5,1076.5 C 649.199,1076.34 650.866,1076.51 652.5,1077C 650.613,1077.78 648.946,1077.61 647.5,1076.5 Z"/></g>
</svg>
